<?xml version="1.0" encoding="UTF-8"?>
<svg version="1.1" xmlns="http://www.w3.org/2000/svg" width="1024" height="1024">
<path d="M0 0 C2.8125 1.375 2.8125 1.375 5 3 C5.99 3.66 6.98 4.32 8 5 C8 5.66 8 6.32 8 7 C8.57234375 7.24363281 9.1446875 7.48726563 9.734375 7.73828125 C12.40433538 9.22517298 14.13829007 10.98083908 16.25 13.1875 C20.3233768 17.35467166 24.52846492 21.26463228 29 25 C29.79019531 25.66386719 30.58039063 26.32773437 31.39453125 27.01171875 C33.98566391 28.98905987 36.56407997 30.46963482 39.4375 32 C47.10633124 36.40107803 53.49502836 42.0529477 60 48 C60.81339844 48.72960937 61.62679687 49.45921875 62.46484375 50.2109375 C79.36135971 66.16027083 94.41184677 89.6982574 95.203125 113.46875 C95.43179107 128.13979007 94.02398895 140.81424828 87 154 C86.63132812 154.69480469 86.26265625 155.38960937 85.8828125 156.10546875 C80.11741816 166.06568448 71.14369738 176.34947844 60 180 C55.86799647 180.64661124 52.78085152 180.4066935 49 178.4375 C47 176 47 176 46.5 172.625 C47.02322968 168.83158484 48.0759938 166.28684393 50 163 C50.66 163 51.32 163 52 163 C52.33 162.01 52.66 161.02 53 160 C54.70703125 158.421875 54.70703125 158.421875 56.8125 156.75 C63.54522111 151.00490524 66.32561662 144.34533457 67.2578125 135.57421875 C67.87268807 121.73951847 62.75434017 109.17664672 55 98 C53.33923298 96.32745449 51.67392873 94.65937283 50 93 C50 92.34 50 91.68 50 91 C49.34 91 48.68 91 48 91 C47.360625 90.34 46.72125 89.68 46.0625 89 C36.43885939 79.18166146 24.41700463 73.5327872 11 71 C11.00276538 71.63315502 11.00553076 72.26631004 11.00837994 72.91865158 C11.07481591 88.36980935 11.12436587 103.820917 11.15543652 119.27218246 C11.17086386 126.74449565 11.19187364 134.21671312 11.22631836 141.68896484 C11.25634804 148.20658348 11.27560499 154.72413276 11.28226548 161.24181867 C11.28615494 164.68854953 11.29520783 168.13508206 11.31719017 171.58174896 C11.34160893 175.44223063 11.34196135 179.30252346 11.34057617 183.16308594 C11.351362 184.28878494 11.36214783 185.41448395 11.3732605 186.57429504 C11.32764038 198.39157649 9.32341813 209.1546048 1 218 C-5.40924626 223.67614852 -12.50294285 227.68252353 -20.0625 231.625 C-26.148731 234.83265935 -32.16415961 238.02905819 -37.95874023 241.74047852 C-41.23768038 243.76368773 -44.63330093 245.56433055 -48.0234375 247.39306641 C-53.3728871 250.28103206 -58.68416401 253.23825094 -64 256.1875 C-64.58217285 256.51026917 -65.1643457 256.83303833 -65.76416016 257.16558838 C-74.35255871 261.93010751 -82.89225976 266.77135717 -91.3515625 271.76245117 C-92.41503906 272.3866394 -92.41503906 272.3866394 -93.5 273.0234375 C-94.1084375 273.38356934 -94.716875 273.74370117 -95.34375 274.11474609 C-100.25027843 276.73725082 -105.59196539 276.68759297 -111 276 C-114.40160192 274.38624791 -116.4338072 272.12710598 -118.13605022 268.73849297 C-119.16052548 265.49117656 -119.2547006 262.77771156 -119.26069641 259.37161255 C-119.26452196 258.71891101 -119.26834751 258.06620947 -119.27228898 257.39372909 C-119.28257846 255.21438897 -119.27863463 253.03531431 -119.2746582 250.85595703 C-119.27900696 249.29024004 -119.28419066 247.72452518 -119.29014587 246.15881348 C-119.30353033 241.91081714 -119.3041151 237.6629098 -119.30158257 233.41489649 C-119.30051237 229.8662494 -119.30539756 226.31762028 -119.310188 222.76897705 C-119.32128152 214.39528742 -119.32172162 206.02164264 -119.31567383 197.64794922 C-119.30963487 189.01545875 -119.3219434 180.3831313 -119.3432439 171.75066864 C-119.36087025 164.33394874 -119.36685958 156.91728068 -119.36360615 149.50054061 C-119.36179462 145.07319257 -119.36441642 140.64596079 -119.37832069 136.21863174 C-119.39091106 132.05384126 -119.38894357 127.88930449 -119.37590981 123.72451782 C-119.37354701 122.19874866 -119.37626809 120.67296158 -119.38453293 119.14721298 C-119.39502793 117.05863463 -119.38687881 114.97090332 -119.3742218 112.88235474 C-119.37438954 111.71540636 -119.37455729 110.54845798 -119.37473011 109.34614754 C-118.81411553 104.34014707 -117.23179503 100.45575777 -113.9375 96.5625 C-109.55865922 94.23332937 -105.86756579 94.17757332 -101 95 C-96.6167133 96.90831786 -92.69551747 99.40752825 -88.6875 102 C-87.5744751 102.69480469 -86.4614502 103.38960938 -85.31469727 104.10546875 C-83.13829045 105.46610194 -80.96735899 106.83554335 -78.80273438 108.21484375 C-75.70577102 110.18740438 -72.57838609 112.09849059 -69.4375 114 C-65.4214427 116.48354288 -61.41945522 118.98914632 -57.41796875 121.49609375 C-55.3203852 122.8100119 -53.22272701 124.1238109 -51.125 125.4375 C-50.0829541 126.09008789 -49.0409082 126.74267578 -47.96728516 127.41503906 C-40.03421976 132.37429687 -32.04774615 137.22937344 -24 142 C-22.33297204 142.9993976 -20.66624827 143.99930301 -19 145 C-18.99761165 144.33923273 -18.99522329 143.67846546 -18.99276257 142.99767494 C-18.93351579 126.88781601 -18.8579042 110.77812838 -18.76428509 94.66843605 C-18.71940159 86.87776674 -18.67996995 79.08714238 -18.65356445 71.29638672 C-18.63052385 64.50256191 -18.59705866 57.70888025 -18.55129844 50.91516912 C-18.52744752 47.32101498 -18.50866571 43.72700189 -18.50238609 40.13277054 C-18.49516398 36.11125918 -18.464659 32.09023599 -18.43237305 28.06884766 C-18.43452568 26.29938278 -18.43452568 26.29938278 -18.4367218 24.49417114 C-18.34840325 16.69234436 -18.22551989 8.22551989 -12.4375 2.4375 C-8.23291384 -0.04212774 -4.86134347 -0.54222677 0 0 Z " fill="#C58504" transform="translate(255,340)"/>
<path d="M0 0 C58.11111111 0 58.11111111 0 69 8 C77.87327166 17.45477248 80.50693498 28.1497551 80.27734375 40.74609375 C79.79289665 51.44490306 75.934541 60.39799794 68.1875 67.7109375 C63.24718475 71.79466583 58.17785949 73.53958764 52 75 C51.36707031 75.18691406 50.73414063 75.37382813 50.08203125 75.56640625 C47.33701 76.13807109 44.74064107 76.13181201 41.9375 76.125 C40.89464844 76.12757813 39.85179687 76.13015625 38.77734375 76.1328125 C33.84016122 75.95921973 28.91994486 75.44726771 24 75 C24 87.87 24 100.74 24 114 C16.08 114 8.16 114 0 114 C0 76.38 0 38.76 0 0 Z M23 22 C22.9116033 24.3756852 22.88469695 26.72208674 22.90234375 29.09765625 C22.9037587 29.80651474 22.90517365 30.51537323 22.90663147 31.24571228 C22.91224557 33.51801712 22.92480037 35.79022475 22.9375 38.0625 C22.94251319 39.59960796 22.94707641 41.13671745 22.95117188 42.67382812 C22.96221958 46.44925642 22.97949359 50.22461171 23 54 C26.68722927 54.11701204 30.37397542 54.18752045 34.0625 54.25 C35.62000977 54.30027344 35.62000977 54.30027344 37.20898438 54.3515625 C43.74292593 54.43453319 47.661267 53.84691683 53 50 C53 49.34 53 48.68 53 48 C53.66 48 54.32 48 55 48 C57.4345332 42.6362675 57.5863498 37.8125111 57 32 C55.68796267 28.4436007 55.68796267 28.4436007 54 26 C53.34 26 52.68 26 52 26 C52 25.34 52 24.68 52 24 C45.46728308 21.11791901 39.21058537 20.83907629 32.1875 20.875 C31.41212891 20.87113281 30.63675781 20.86726563 29.83789062 20.86328125 C26.11634948 20.51399552 26.11634948 20.51399552 23 22 Z " fill="#C38405" transform="translate(392,451)"/>
<path d="M0 0 C55.81081081 0 55.81081081 0 65.1875 5.6875 C65.92355469 6.12449219 66.65960937 6.56148438 67.41796875 7.01171875 C67.94003906 7.33785156 68.46210937 7.66398437 69 8 C69 8.66 69 9.32 69 10 C69.99 10.33 70.98 10.66 72 11 C80.06328795 21.52536061 80.78851504 32.2585983 80 45 C78.55866203 54.81078787 74.32855713 62.47473444 66.75 68.875 C53.99434964 78.08978421 37.81921382 76.05967976 23 75 C23.24447876 76.24354248 23.24447876 76.24354248 23.49389648 77.51220703 C24.04375438 81.30153164 24.12617486 84.98731179 24.09765625 88.8046875 C24.0962413 89.5286673 24.09482635 90.25264709 24.09336853 90.99856567 C24.08781075 93.29075407 24.07526633 95.58284157 24.0625 97.875 C24.05747953 99.43749858 24.05291759 100.99999871 24.04882812 102.5625 C24.03870984 106.3750693 24.01912664 110.1874229 24 114 C16.08 114 8.16 114 0 114 C0 76.38 0 38.76 0 0 Z M23 21 C23 31.89 23 42.78 23 54 C26.83625 54.0825 30.6725 54.165 34.625 54.25 C35.82334473 54.28641602 37.02168945 54.32283203 38.25634766 54.36035156 C44.50276784 54.42538566 48.30249244 54.27186849 53 50 C56.71855839 45.57793057 58.09924172 41.6898589 58 36 C57.06876383 31.00518783 55.76189108 27.47251485 52 24 C45.58177829 20.95992451 39.42619725 20.61412703 32.4375 20.8125 C29.323125 20.874375 26.20875 20.93625 23 21 Z " fill="#C48302" transform="translate(680,451)"/>
<path d="M0 0 C6.93 0 13.86 0 21 0 C21 37.62 21 75.24 21 114 C14.07 114 7.14 114 0 114 C-1 111 -1 111 -1 108 C-1.50789062 108.40992188 -2.01578125 108.81984375 -2.5390625 109.2421875 C-3.22742188 109.78101563 -3.91578125 110.31984375 -4.625 110.875 C-5.29789063 111.40867187 -5.97078125 111.94234375 -6.6640625 112.4921875 C-14.04398432 117.25581597 -23.21448486 117.02299599 -31.62890625 115.53515625 C-41.11433384 112.74726536 -46.63084608 107.09966609 -51.33422852 98.58862305 C-58.02545399 85.61687374 -59.18791443 69.99144138 -55 56 C-51.54730982 46.23951046 -46.25093693 37.13575146 -37 32 C-28.06783391 28.13427566 -19.40627365 27.85215116 -10.203125 30.85546875 C-7.07853472 32.47870448 -4.68488445 34.72206195 -2 37 C-1.96241577 35.37203491 -1.96241577 35.37203491 -1.92407227 33.71118164 C-1.83016245 29.698684 -1.72990233 25.68636618 -1.62768555 21.67407227 C-1.58427427 19.93485712 -1.54260388 18.19559765 -1.50268555 16.45629883 C-1.44513232 13.96161512 -1.3813958 11.4671559 -1.31640625 8.97265625 C-1.29969376 8.19036148 -1.28298126 7.40806671 -1.26576233 6.60206604 C-1.11387171 1.11387171 -1.11387171 1.11387171 0 0 Z M-30.25 56.8125 C-34.50469888 64.5621301 -35.47796111 73.23195718 -33.27734375 81.8203125 C-31.05935985 87.83670608 -28.32431374 91.96847494 -22.75 95.375 C-17.71917206 96.51836999 -12.93066733 95.87757606 -8.25 93.75 C-2.92205247 89.76060502 -2.92205247 89.76060502 -0.32128906 83.86547852 C-0.26110485 80.09578218 -0.2204151 76.33272611 -0.25 72.5625 C-0.21390625 71.25216797 -0.1778125 69.94183594 -0.140625 68.59179688 C0.02149314 61.86333214 0.02149314 61.86333214 -2.47070312 55.82373047 C-4.25469357 54.25200626 -5.89868203 53.10397681 -8 52 C-8.68755371 51.63124756 -9.37510742 51.26249512 -10.08349609 50.88256836 C-17.90235033 47.28191128 -25.20924002 50.51155003 -30.25 56.8125 Z " fill="#C48303" transform="translate(905,451)"/>
<path d="M0 0 C8.70719041 6.65389905 13.57045684 16.453574 16 27 C17.30547842 40.21905937 16.77287177 53.84867952 8.75 64.9375 C1.80145159 72.99250516 -6.06068755 76.68689585 -16 80 C-29.3556685 80.87790493 -40.29261199 79.92336291 -50.93359375 70.9765625 C-61.27232412 61.08734214 -64.87945733 50.40856068 -65.25 36.3125 C-65.11273556 23.3684632 -61.53380476 12.62047088 -52.5625 3.125 C-38.05987736 -10.30568966 -16.21972425 -10.09858628 0 0 Z M-38.25 20.875 C-42.70132329 28.82379158 -43.61422442 37.89212383 -41.27734375 46.734375 C-38.92173282 52.41835927 -35.8272292 56.61779906 -30.1875 59.375 C-25.16115726 60.3605574 -20.99732667 59.88253969 -16.3125 57.8125 C-10.28873215 53.09116844 -7.99746038 48.73831773 -6.37890625 41.29296875 C-5.45536837 33.26675808 -6.77563499 25.13467923 -11.6015625 18.5234375 C-15.35261124 14.43709948 -19.17141844 13.80076991 -24.5 13.5625 C-30.98244261 13.76480147 -34.24591135 15.7586645 -38.25 20.875 Z " fill="#C38305" transform="translate(825,487)"/>
<path d="M0 0 C6.89250708 5.9532476 11.24855203 14.27760939 12.43423462 23.3067627 C12.57349808 26.83528021 12.5637791 30.32899246 12.48828125 33.859375 C12.48120651 35.12976624 12.47413177 36.40015747 12.46684265 37.70904541 C12.44379515 41.04365295 12.39909564 44.37645804 12.34332275 47.71057129 C12.29164637 51.12980805 12.26922683 54.54923309 12.24414062 57.96875 C12.18933584 64.64631934 12.10590929 71.32305595 12 78 C8.5627834 78.11604679 5.12606914 78.18719508 1.6875 78.25 C0.71103516 78.28351563 -0.26542969 78.31703125 -1.27148438 78.3515625 C-2.20927734 78.36445312 -3.14707031 78.37734375 -4.11328125 78.390625 C-5.40939331 78.4220459 -5.40939331 78.4220459 -6.73168945 78.45410156 C-9 78 -9 78 -10.80541992 75.97558594 C-11.19963135 75.32364258 -11.59384277 74.67169922 -12 74 C-12.86625 74.61875 -13.7325 75.2375 -14.625 75.875 C-22.36083134 80.74570862 -30.07488143 80.75396989 -39 80 C-46.32591186 78.15542134 -52.1278678 73.56540549 -56.8125 67.75 C-60.24178743 59.80849228 -61.2141033 50.9917203 -58.17578125 42.76953125 C-54.73964218 35.53055052 -50.34575188 30.3716306 -43 27 C-31.79433801 23.5276282 -21.73753985 22.63123008 -11 28 C-10.50600787 21.60284713 -10.50600787 21.60284713 -13 16 C-18.3969307 12.02331422 -24.58481866 12.24230142 -31 13 C-36.42140092 14.63168377 -39.83274857 17.24912286 -43 22 C-46.03852705 20.59023295 -48.5939595 18.91129772 -51.25 16.875 C-51.95640625 16.33617187 -52.6628125 15.79734375 -53.390625 15.2421875 C-53.92171875 14.83226562 -54.4528125 14.42234375 -55 14 C-53.37766088 6.78960392 -48.60854136 1.98249143 -42.875 -2.375 C-29.44191273 -9.96761454 -12.53598958 -8.83166113 0 0 Z M-36.4375 44.5625 C-38.81092494 48.2650429 -38.64566252 51.7244543 -38 56 C-36.61677567 58.83924995 -35.52934654 59.69751626 -32.8125 61.25 C-25.04924852 63.32020039 -19.01150363 61.57091449 -12 58 C-9.67133771 56.11153817 -9.67133771 56.11153817 -9.8046875 52.9609375 C-9.82789063 51.77757812 -9.85109375 50.59421875 -9.875 49.375 C-9.89304687 48.18648437 -9.91109375 46.99796875 -9.9296875 45.7734375 C-9.95289063 44.85820313 -9.97609375 43.94296875 -10 43 C-19.16809737 40.93394989 -28.01331503 39.16238143 -36.4375 44.5625 Z " fill="#C38204" transform="translate(571,487)"/>
<path d="M0 0 C7.26 0 14.52 0 22 0 C26.5 11.25 26.5 11.25 27.83105469 15.08251953 C28.13106384 15.94265656 28.431073 16.80279358 28.74017334 17.68899536 C29.20136566 19.02243484 29.20136566 19.02243484 29.671875 20.3828125 C29.99915588 21.32309296 30.32643677 22.26337341 30.66363525 23.23214722 C31.69459373 26.19568242 32.72235208 29.16031541 33.75 32.125 C34.45421451 34.15111556 35.1586397 36.17715791 35.86328125 38.203125 C37.57795424 43.13457398 39.29001098 48.06692502 41 53 C43.08470904 49.87293644 44.14201075 47.09820526 45.390625 43.55859375 C45.61599945 42.92261765 45.8413739 42.28664154 46.07357788 41.63139343 C46.80325523 39.56821812 47.52673765 37.50293191 48.25 35.4375 C48.74766458 34.0264525 49.24554912 32.61548256 49.74365234 31.20458984 C52.70163955 22.80610347 55.60572794 14.3912527 58.33691406 5.91577148 C59.90030356 1.09969644 59.90030356 1.09969644 61 0 C62.56172745 -0.08685603 64.12729344 -0.10702219 65.69140625 -0.09765625 C66.63564453 -0.09443359 67.57988281 -0.09121094 68.55273438 -0.08789062 C69.54595703 -0.07951172 70.53917969 -0.07113281 71.5625 -0.0625 C72.55958984 -0.05798828 73.55667969 -0.05347656 74.58398438 -0.04882812 C77.05604849 -0.03700007 79.52799518 -0.02051849 82 0 C83.38427068 4.15281205 81.73972258 6.71357007 80.125 10.5625 C76.99257025 18.29428467 74.18784206 26.10320627 71.5 34 C68.16263575 43.7623724 64.60099599 53.39461756 60.79541016 62.98242188 C56.7885827 73.1458418 53.13312662 83.42850662 49.54833984 93.74682617 C42.74985554 113.25014446 42.74985554 113.25014446 41 115 C39.21928754 115.08726223 37.4351686 115.10699041 35.65234375 115.09765625 C34.57275391 115.09443359 33.49316406 115.09121094 32.38085938 115.08789062 C31.24455078 115.07951172 30.10824219 115.07113281 28.9375 115.0625 C27.79732422 115.05798828 26.65714844 115.05347656 25.48242188 115.04882812 C22.65489649 115.03699747 19.8274736 115.0205141 17 115 C18.49106307 110.13172373 20.18355331 105.44384737 22.296875 100.80859375 C22.69777344 99.92623047 23.09867188 99.04386719 23.51171875 98.13476562 C24.3414572 96.32740159 25.18275196 94.52530097 26.03515625 92.72851562 C26.43089844 91.84744141 26.82664062 90.96636719 27.234375 90.05859375 C27.59756836 89.27798584 27.96076172 88.49737793 28.33496094 87.69311523 C29.90113538 81.35079868 27.68338112 75.40626767 25.26953125 69.5625 C24.99662766 68.87929688 24.72372406 68.19609375 24.44255066 67.4921875 C23.57469346 65.32444935 22.69419077 63.16214347 21.8125 61 C20.67001561 58.16793514 19.53241434 55.33391612 18.39453125 52.5 C18.11087708 51.79611145 17.8272229 51.0922229 17.53497314 50.36700439 C14.80499045 43.57075053 12.24263907 36.71585471 9.69186401 29.85083008 C8.62735816 27.00313253 7.53604128 24.16586308 6.4453125 21.328125 C5.86523438 19.80832031 5.86523438 19.80832031 5.2734375 18.2578125 C4.48920774 16.20387742 3.69991716 14.15186933 2.90625 12.1015625 C2.52726563 11.10382813 2.14828125 10.10609375 1.7578125 9.078125 C1.4189502 8.19543945 1.08008789 7.31275391 0.73095703 6.40332031 C0 4 0 4 0 0 Z " fill="#C38204" transform="translate(588,483)"/>
<path d="M0 0 C7.26 0 14.52 0 22 0 C22 37.62 22 75.24 22 114 C14.74 114 7.48 114 0 114 C0 76.38 0 38.76 0 0 Z " fill="#C48402" transform="translate(479,451)"/>
<path d="M0 0 C55.81081081 0 55.81081081 0 65.1875 5.6875 C65.92355469 6.12449219 66.65960937 6.56148438 67.41796875 7.01171875 C67.94003906 7.33785156 68.46210937 7.66398437 69 8 C69 8.66 69 9.32 69 10 C69.99 10.33 70.98 10.66 72 11 C80.1077778 21.58343514 80.59504941 32.21335684 80 45 C79.48828125 47.484375 79.48828125 47.484375 79 49 C78.34 49 77.68 49 77 49 C77.03480469 47.91203125 77.06960938 46.8240625 77.10546875 45.703125 C77.34909463 34.69726315 76.25213177 25.27906636 72 15 C70.68 15 69.36 15 68 15 C68 13.68 68 12.36 68 11 C67.34 11 66.68 11 66 11 C65.4121875 10.3503125 65.4121875 10.3503125 64.8125 9.6875 C57.93095573 3.28054499 48.099824 3.85604446 39.3515625 3.90234375 C37.83276993 3.90446617 37.83276993 3.90446617 36.28329468 3.90663147 C33.06383249 3.91220857 29.84444101 3.92475688 26.625 3.9375 C24.43619892 3.94251796 22.24739675 3.94708035 20.05859375 3.95117188 C14.70570523 3.9621705 9.35285767 3.9788858 4 4 C3.98969254 4.71883865 3.97938507 5.43767731 3.96876526 6.17829895 C3.83622487 15.38974262 3.70060896 24.6011383 3.5625 33.8125 C3.55147877 34.54771252 3.54045753 35.28292503 3.52910233 36.04041672 C3.14832619 61.36378747 2.65274012 86.68201623 2 112 C8.27 112 14.54 112 21 112 C21 99.79 21 87.58 21 75 C21.33 75 21.66 75 22 75 C22.02505615 75.96824707 22.0501123 76.93649414 22.07592773 77.93408203 C22.17050706 81.54601985 22.27060183 85.15778785 22.37231445 88.76953125 C22.41547308 90.32906099 22.45716056 91.88863219 22.49731445 93.44824219 C22.55548213 95.69739242 22.61903923 97.94633759 22.68359375 100.1953125 C22.70030624 100.8861795 22.71701874 101.57704651 22.73423767 102.28884888 C22.85657749 106.33857175 23.32665232 109.95991393 24 114 C16.08 114 8.16 114 0 114 C0 76.38 0 38.76 0 0 Z " fill="#AF6E05" transform="translate(680,451)"/>
<path d="M0 0 C7.26 0 14.52 0 22 0 C22 37.62 22 75.24 22 114 C14.74 114 7.48 114 0 114 C0 76.38 0 38.76 0 0 Z M2 2 C2 38.3 2 74.6 2 112 C7.61 112 13.22 112 19 112 C19 75.7 19 39.4 19 2 C13.39 2 7.78 2 2 2 Z " fill="#B66F08" transform="translate(479,451)"/>
<path d="M0 0 C0.33 0 0.66 0 1 0 C1.18451025 16.8929385 1.18451025 16.8929385 0 24 C-0.99 24.33 -1.98 24.66 -3 25 C-3.67673447 28.40320934 -3.67673447 28.40320934 -4 32 C-3.34 32.66 -2.68 33.32 -2 34 C-2 33.34 -2 32.68 -2 32 C-1.34 32 -0.68 32 0 32 C0 33.32 0 34.64 0 36 C-0.66 36 -1.32 36 -2 36 C-1.67 37.65 -1.34 39.3 -1 41 C3.42664564 41.30495485 3.42664564 41.30495485 7.375 39.5 C7.91125 39.005 8.4475 38.51 9 38 C8.16884418 43.4636272 3.95042284 46.48352512 0 50 C-5.29962186 53.73382449 -10.50381372 54.90046146 -17 54 C-20 52.4375 -20 52.4375 -22 50 C-22.77357161 44.77839162 -21.63359923 41.49906536 -19 37 C-18.34 37 -17.68 37 -17 37 C-16.67 36.01 -16.34 35.02 -16 34 C-14.29296875 32.421875 -14.29296875 32.421875 -12.1875 30.75 C-2.72814122 22.67823946 -1.83055905 11.68441946 0 0 Z " fill="#C4840A" transform="translate(324,466)"/>
<path d="M0 0 C49 0 49 0 62 4 C62 4.99 62 5.98 62 7 C61.11568298 6.68344955 61.11568298 6.68344955 60.21350098 6.36050415 C53.56039324 4.15029857 47.57431499 3.54632622 40.59375 3.5234375 C39.54723267 3.50785797 38.50071533 3.49227844 37.42248535 3.47622681 C34.11499667 3.4290997 30.80771585 3.4010526 27.5 3.375 C24.16386405 3.33848699 20.82784552 3.29793881 17.49182129 3.25234985 C15.42410202 3.22514935 13.3562961 3.20378675 11.28845215 3.18881226 C10.35988403 3.17855011 9.43131592 3.16828796 8.47460938 3.15771484 C7.6564978 3.15121918 6.83838623 3.14472351 5.9954834 3.13803101 C4 3 4 3 2 2 C2 38.3 2 74.6 2 112 C8.27 112 14.54 112 21 112 C21 99.46 21 86.92 21 74 C21.66 74.33 22.32 74.66 23 75 C23.33 87.87 23.66 100.74 24 114 C16.08 114 8.16 114 0 114 C0 76.38 0 38.76 0 0 Z " fill="#B97406" transform="translate(392,451)"/>
<path d="M0 0 C6.93 0 13.86 0 21 0 C21 37.62 21 75.24 21 114 C14.4 114 7.8 114 1 114 C1 111.69 1 109.38 1 107 C1.33 107 1.66 107 2 107 C2 108.65 2 110.3 2 112 C10.415 111.505 10.415 111.505 19 111 C18.505 58.035 18.505 58.035 18 4 C11.07 3.505 11.07 3.505 4 3 C3.34 2.67 2.68 2.34 2 2 C2 14.87 2 27.74 2 41 C-3.45949074 39.90810185 -4.01471081 39.31208438 -7 35 C-3.125 35.875 -3.125 35.875 -2 37 C-1.97494385 35.91468994 -1.9498877 34.82937988 -1.92407227 33.71118164 C-1.83016245 29.698684 -1.72990233 25.68636618 -1.62768555 21.67407227 C-1.58427427 19.93485712 -1.54260388 18.19559765 -1.50268555 16.45629883 C-1.44513232 13.96161512 -1.3813958 11.4671559 -1.31640625 8.97265625 C-1.29133751 7.7992141 -1.29133751 7.7992141 -1.26576233 6.60206604 C-1.11387171 1.11387171 -1.11387171 1.11387171 0 0 Z " fill="#B66E02" transform="translate(905,451)"/>
<path d="M0 0 C1.73030291 0.28484846 3.45920714 0.57819938 5.1875 0.875 C6.15042969 1.03742188 7.11335938 1.19984375 8.10546875 1.3671875 C10.91032604 1.98039517 13.37224747 2.85666343 16 4 C16 4.33 16 4.66 16 5 C14.60386935 4.85704109 13.20810692 4.71048442 11.8125 4.5625 C11.03519531 4.48128906 10.25789063 4.40007812 9.45703125 4.31640625 C6.93971527 3.99223678 4.48574876 3.50873664 2 3 C2.00184359 3.63684219 2.00368717 4.27368439 2.00558662 4.92982483 C2.04981111 20.44635179 2.08287865 35.96285674 2.10362434 51.47943115 C2.1139242 58.98321805 2.1279598 66.48696281 2.15087891 73.99072266 C2.17085236 80.53320628 2.18372581 87.07565938 2.18817699 93.61817265 C2.19077769 97.08037663 2.1968634 100.54249328 2.21146011 104.00466919 C2.22764652 107.87552492 2.22797715 111.74629625 2.22705078 115.6171875 C2.23424133 116.75726761 2.24143188 117.89734772 2.24884033 119.07197571 C2.23330959 125.07546015 1.75696562 130.2503065 0 136 C-0.66 136 -1.32 136 -2 136 C-2.495 136.99 -2.495 136.99 -3 138 C-2.83890747 136.94042084 -2.67781494 135.88084167 -2.51184082 134.78915405 C-1.79281533 128.99395954 -1.8314952 123.20578959 -1.81054688 117.37353516 C-1.80225357 116.1271225 -1.79396027 114.88070984 -1.78541565 113.5965271 C-1.7680712 110.90107732 -1.75241167 108.20568109 -1.73963928 105.51021194 C-1.71931153 101.24955714 -1.69167899 96.98896843 -1.66296387 92.72836304 C-1.59798022 82.9243063 -1.54227651 73.12020118 -1.48697662 63.31608582 C-1.4361253 54.31037282 -1.38330711 45.30468426 -1.32245111 36.29903257 C-1.29409302 32.06128479 -1.27050264 27.82354508 -1.25052643 23.58574986 C-1.2340302 20.34050754 -1.2112296 17.0953082 -1.18945312 13.85009766 C-1.18526871 12.67296204 -1.18108429 11.49582642 -1.17677307 10.28302002 C-1.16842941 9.21482025 -1.16008575 8.14662048 -1.15148926 7.04605103 C-1.14633553 6.11436914 -1.14118179 5.18268726 -1.13587189 4.2227726 C-1 2 -1 2 0 0 Z " fill="#B06D01" transform="translate(264,408)"/>
<path d="M0 0 C0 3 0 3 -1 5 C-1.10183377 7.0560185 -1.13786414 9.11539238 -1.14476013 11.17391968 C-1.15165863 12.49191055 -1.15855713 13.80990143 -1.16566467 15.16783142 C-1.16837948 16.63711534 -1.17101663 18.10639941 -1.17358398 19.57568359 C-1.17988729 21.1162688 -1.18665284 22.65685217 -1.19384766 24.19743347 C-1.20853296 27.51993811 -1.22025144 30.84243563 -1.22979546 34.16495895 C-1.24522459 39.4170234 -1.26917341 44.66902717 -1.29469299 49.92105103 C-1.36595827 64.85748464 -1.42569711 79.79395304 -1.47680664 94.73046875 C-1.50509637 102.97595794 -1.54047019 111.22138679 -1.58346039 119.46681273 C-1.61025833 124.68916659 -1.62814785 129.91145217 -1.63949764 135.1338613 C-1.64861599 138.38232787 -1.66597423 141.63071142 -1.68567657 144.87912941 C-1.69315746 146.38679132 -1.69723346 147.89447451 -1.69767189 149.40215492 C-1.69875307 151.45897274 -1.71198825 153.51536744 -1.72825623 155.57211304 C-1.73248816 156.72360022 -1.7367201 157.87508739 -1.74108028 159.06146812 C-1.99273043 161.91749625 -2.51297592 163.58229091 -4 166 C-4.04673733 145.52026367 -4.08199736 125.04053817 -4.10362434 104.56075954 C-4.11393339 95.05147455 -4.12798664 85.5422227 -4.15087891 76.03295898 C-4.17082413 67.74391456 -4.18371914 59.45489414 -4.18817699 51.16582638 C-4.19078244 46.77754275 -4.19689871 42.38932781 -4.21146011 38.00106621 C-4.22506189 33.86841256 -4.22921739 29.73585574 -4.22621536 25.60318184 C-4.22676436 24.08870034 -4.23072634 22.57421552 -4.23841095 21.05975342 C-4.248413 18.98640883 -4.24594998 16.91342621 -4.24050903 14.84007263 C-4.24235262 13.68137885 -4.24419621 12.52268507 -4.24609566 11.32887936 C-3.97331574 7.6390482 -3.23393436 4.48512567 -2 1 C-1.34 0.67 -0.68 0.34 0 0 Z " fill="#A96F0A" transform="translate(141,439)"/>
<path d="M0 0 C0.99 0.495 0.99 0.495 2 1 C1.67 37.3 1.34 73.6 1 111 C7.27 111 13.54 111 20 111 C20 98.46 20 85.92 20 73 C20.66 73.33 21.32 73.66 22 74 C22.33 86.87 22.66 99.74 23 113 C17.5859375 113.0309375 17.5859375 113.0309375 12.0625 113.0625 C10.92304932 113.071604 9.78359863 113.08070801 8.60961914 113.09008789 C7.71879639 113.09258545 6.82797363 113.09508301 5.91015625 113.09765625 C4.53549194 113.10551147 4.53549194 113.10551147 3.13305664 113.11352539 C1 113 1 113 0 112 C-0.0956161 110.54518505 -0.12188351 109.08574514 -0.12025452 107.62779236 C-0.12231651 106.21215248 -0.12231651 106.21215248 -0.12442017 104.76791382 C-0.12082489 103.72422638 -0.11722961 102.68053894 -0.11352539 101.60522461 C-0.11367142 100.51267868 -0.11381744 99.42013275 -0.1139679 98.29447937 C-0.11326822 94.66374767 -0.10547329 91.03306654 -0.09765625 87.40234375 C-0.09579226 84.89270557 -0.09436827 82.38306702 -0.09336853 79.87342834 C-0.08993348 73.93065407 -0.08204273 67.98789616 -0.07201904 62.04513031 C-0.05976253 54.61798075 -0.05437792 47.19082895 -0.04882812 39.76367188 C-0.03808811 26.50910527 -0.02120082 13.25455379 0 0 Z " fill="#A4670B" transform="translate(393,452)"/>
<path d="M0 0 C3.12451001 4.16601335 3.37328021 4.75452854 3.34057617 9.59472656 C3.34034958 10.71558655 3.34012299 11.83644653 3.33988953 12.99127197 C3.32440567 14.19555847 3.30892181 15.39984497 3.29296875 16.640625 C3.28872391 17.87794373 3.28447906 19.11526245 3.28010559 20.39007568 C3.26616254 23.67162541 3.23923086 26.95273056 3.20599365 30.23413086 C3.17524594 33.58573307 3.16184603 36.93735439 3.14648438 40.2890625 C3.11339985 46.85957122 3.06160842 53.42969931 3 60 C-3.6 60 -10.2 60 -17 60 C-17 57.36 -17 54.72 -17 52 C-16.67 52 -16.34 52 -16 52 C-16 53.98 -16 55.96 -16 58 C-8.08 57.505 -8.08 57.505 0 57 C0 38.19 0 19.38 0 0 Z " fill="#C07806" transform="translate(580,505)"/>
<path d="M0 0 C-12.65648251 11.15849303 -25.9976509 11.4228502 -42.15820312 10.40722656 C-44.10583777 10.27688614 -46.05298035 10.13922583 -48 10 C-47.83701416 10.84256348 -47.67402832 11.68512695 -47.50610352 12.55322266 C-46.97914322 16.14204346 -46.88684792 19.52241346 -46.90234375 23.1484375 C-46.90446617 24.13452499 -46.90446617 24.13452499 -46.90663147 25.14053345 C-46.91218238 27.21873731 -46.92472535 29.29682927 -46.9375 31.375 C-46.94252136 32.79296718 -46.94708315 34.21093607 -46.95117188 35.62890625 C-46.96213563 39.08597322 -46.97936579 42.54297567 -47 46 C-49.47113581 42.29329628 -49.34788589 39.34807819 -49.4140625 35.05078125 C-49.44311172 33.89185616 -49.44311172 33.89185616 -49.4727478 32.70951843 C-49.53248479 30.2439576 -49.57890486 27.77834993 -49.625 25.3125 C-49.66318525 23.6399537 -49.70223731 21.96742695 -49.7421875 20.29492188 C-49.83818133 16.19677353 -49.92223377 12.09853312 -50 8 C-49.17387207 7.98541748 -48.34774414 7.97083496 -47.49658203 7.95581055 C-44.3837506 7.89416385 -41.27152679 7.81990794 -38.15917969 7.73754883 C-36.16883087 7.68857841 -34.17815119 7.65370054 -32.1875 7.61914062 C-24.66137524 7.4100816 -18.05841753 6.69452123 -11 4 C-11 3.34 -11 2.68 -11 2 C-10.34 2 -9.68 2 -9 2 C-9 1.34 -9 0.68 -9 0 C-3.375 -1.125 -3.375 -1.125 0 0 Z " fill="#C09446" transform="translate(751,516)"/>
<path d="M0 0 C4.29396115 -0.37108306 6.17919194 0.45775353 9.5625 3.0625 C13.15523821 5.70810988 16.75059379 8.0985536 20.625 10.3125 C25.71537935 13.23647769 30.75014181 16.23698396 35.75 19.3125 C36.46623535 19.7453833 37.1824707 20.1782666 37.92041016 20.62426758 C39.64899474 21.69435379 41.32993421 22.84070306 43 24 C43 24.66 43 25.32 43 26 C40.54314575 25.57640444 39.3035088 25.34489637 37.625 23.4375 C35.96237867 21.66863275 35.96237867 21.66863275 32.8125 21.8125 C31.884375 21.874375 30.95625 21.93625 30 22 C29.74992187 21.39671875 29.49984375 20.7934375 29.2421875 20.171875 C26.96556715 16.19136898 23.22171555 14.50387292 19 13 C14.95843852 12.60794434 11.04487934 12.69201426 7 13 C7 12.34 7 11.68 7 11 C6.34 11 5.68 11 5 11 C5 9.02 5 7.04 5 5 C4.34 5 3.68 5 3 5 C3 4.01 3 3.02 3 2 C2.01 1.67 1.02 1.34 0 1 C0 0.67 0 0.34 0 0 Z " fill="#C08005" transform="translate(173,449)"/>
<path d="M0 0 C0.33 0 0.66 0 1 0 C0.67 53.79 0.34 107.58 0 163 C0.99 162.67 1.98 162.34 3 162 C2.67 163.65 2.34 165.3 2 167 C1.34 167 0.68 167 0 167 C-1.11860462 163.64418615 -1.12584563 161.12928312 -1.12698364 157.5919342 C-1.12854363 156.93882482 -1.13010362 156.28571543 -1.13171089 155.61281484 C-1.13570537 153.42032053 -1.13253722 151.22789524 -1.12939453 149.03540039 C-1.13074927 147.46511291 -1.13252962 145.89482574 -1.13470459 144.32453918 C-1.13927062 140.05598145 -1.13749266 135.78744783 -1.1343255 131.51888967 C-1.13179719 127.05510851 -1.1341408 122.59132945 -1.13571167 118.12754822 C-1.13753217 110.6297061 -1.13513038 103.13187383 -1.13037109 95.6340332 C-1.12493069 86.96295382 -1.12669 78.29189796 -1.1321975 69.62081915 C-1.13673438 62.18041599 -1.13737629 54.7400199 -1.13475883 47.2996158 C-1.13319898 42.85393064 -1.13299429 38.40825655 -1.13629532 33.9625721 C-1.1391823 29.78229737 -1.13718307 25.60205298 -1.13140106 21.42178154 C-1.13007783 19.88669256 -1.13046019 18.35160103 -1.13266373 16.81651306 C-1.13539239 14.72265729 -1.13197301 12.62889899 -1.12698364 10.53504944 C-1.12660662 9.36273805 -1.12622959 8.19042665 -1.12584114 6.98259068 C-1.01955476 4.46347197 -0.7405755 2.39536128 0 0 Z " fill="#BA7D07" transform="translate(137,442)"/>
<path d="M0 0 C8.47179428 1.18355949 14.89690649 3.26460433 22 8 C22 8.66 22 9.32 22 10 C22.99 10.33 23.98 10.66 25 11 C33.1077778 21.58343514 33.59504941 32.21335684 33 45 C32.48828125 47.484375 32.48828125 47.484375 32 49 C31.34 49 30.68 49 30 49 C30.03480469 47.91203125 30.06960938 46.8240625 30.10546875 45.703125 C30.34909463 34.69726315 29.25213177 25.27906636 25 15 C23.68 15 22.36 15 21 15 C21 13.68 21 12.36 21 11 C20.34 11 19.68 11 19 11 C18.608125 10.566875 18.21625 10.13375 17.8125 9.6875 C13.65159454 5.81355354 8.43634362 4.86487285 3 4 C2.01 3.34 1.02 2.68 0 2 C0 1.34 0 0.68 0 0 Z " fill="#B77A19" transform="translate(727,451)"/>
<path d="M0 0 C3.980625 -0.061875 7.96125 -0.12375 12.0625 -0.1875 C13.92467163 -0.22846802 13.92467163 -0.22846802 15.82446289 -0.27026367 C22.95577983 -0.32382198 28.43150062 -0.19174546 33.9609375 4.75390625 C34.42757812 5.35074219 34.89421875 5.94757813 35.375 6.5625 C35.85710938 7.16191406 36.33921875 7.76132812 36.8359375 8.37890625 C39.02961943 11.43386598 39.11017592 13.40627844 39.0625 17.125 C39.05347656 18.03507812 39.04445313 18.94515625 39.03515625 19.8828125 C39.02355469 20.58148438 39.01195312 21.28015625 39 22 C38.67 22 38.34 22 38 22 C38 19.69 38 17.38 38 15 C37.34 15 36.68 15 36 15 C35.62875 13.9275 35.2575 12.855 34.875 11.75 C33.14617899 7.72152086 30.91821219 6.03747034 27 4 C23.70212728 3.19766915 20.52236834 2.83649405 17.13671875 2.68359375 C15.93728638 2.62643188 15.93728638 2.62643188 14.71362305 2.56811523 C13.21569214 2.50346069 13.21569214 2.50346069 11.6875 2.4375 C8.490625 2.293125 5.29375 2.14875 2 2 C1.67 12.89 1.34 23.78 1 35 C0.67 35 0.34 35 0 35 C0 23.45 0 11.9 0 0 Z " fill="#AA6607" transform="translate(701,470)"/>
<path d="M0 0 C0.33 0 0.66 0 1 0 C1.18451025 16.8929385 1.18451025 16.8929385 0 24 C-0.99 24.33 -1.98 24.66 -3 25 C-3.12375 26.11375 -3.2475 27.2275 -3.375 28.375 C-4 32 -4 32 -6 34 C-6 33.34 -6 32.68 -6 32 C-10.70842624 34.11326526 -10.70842624 34.11326526 -14 38 C-14 38.66 -14 39.32 -14 40 C-14.66 40 -15.32 40 -16 40 C-16 41.32 -16 42.64 -16 44 C-16.66 44 -17.32 44 -18 44 C-18 45.65 -18 47.3 -18 49 C-18.33 49 -18.66 49 -19 49 C-18.91621094 48.38511719 -18.83242188 47.77023437 -18.74609375 47.13671875 C-18.64425781 46.32847656 -18.54242188 45.52023437 -18.4375 44.6875 C-18.33308594 43.88699219 -18.22867187 43.08648437 -18.12109375 42.26171875 C-17.85244822 39.83182884 -17.85244822 39.83182884 -19 37 C-18.34 37 -17.68 37 -17 37 C-16.67 36.01 -16.34 35.02 -16 34 C-14.29296875 32.421875 -14.29296875 32.421875 -12.1875 30.75 C-2.72814122 22.67823946 -1.83055905 11.68441946 0 0 Z " fill="#BF831B" transform="translate(324,466)"/>
<path d="M0 0 C0.99 0.33 1.98 0.66 3 1 C5.68498392 11.06868969 3.96306977 20.97623677 -1 30 C-1.66 30 -2.32 30 -3 30 C-3.28875 30.61875 -3.5775 31.2375 -3.875 31.875 C-5.61113684 35.15436959 -7.61513385 36.64365293 -11 38 C-13.578125 38.1953125 -13.578125 38.1953125 -16.25 38.125 C-17.58804688 38.09792969 -17.58804688 38.09792969 -18.953125 38.0703125 C-19.62859375 38.04710937 -20.3040625 38.02390625 -21 38 C-21 37.01 -21 36.02 -21 35 C-22.32 34.34 -23.64 33.68 -25 33 C-24.28714844 33.10699219 -23.57429687 33.21398437 -22.83984375 33.32421875 C-16.52989319 34.11402414 -12.47220495 34.39276707 -7 31 C-1.49079031 26.11683687 0.07848363 20.19459109 1 13 C0.94868353 8.61943923 0.58105039 4.34037641 0 0 Z " fill="#B57C16" transform="translate(817,512)"/>
<path d="M0 0 C1.25348607 2.95106435 1.01044806 3.97406463 -0.21484375 7.015625 C-2.60742188 11.5078125 -2.60742188 11.5078125 -5 16 C1.27 16 7.54 16 14 16 C14.33 14.02 14.66 12.04 15 10 C15.86173773 7.57999041 16.92410684 5.33889818 18 3 C19.11328125 4.64453125 19.11328125 4.64453125 20 7 C19.35546875 9.76171875 19.35546875 9.76171875 18.1875 12.6875 C17.80980469 13.66074219 17.43210937 14.63398437 17.04296875 15.63671875 C16 18 16 18 15 19 C13.21928754 19.08726223 11.4351686 19.10699041 9.65234375 19.09765625 C8.57275391 19.09443359 7.49316406 19.09121094 6.38085938 19.08789062 C5.24455078 19.07951172 4.10824219 19.07113281 2.9375 19.0625 C1.79732422 19.05798828 0.65714844 19.05347656 -0.51757812 19.04882812 C-3.34510351 19.03699747 -6.1725264 19.0205141 -9 19 C-8.53803208 17.57328436 -8.07248703 16.14772671 -7.60546875 14.72265625 C-7.34660889 13.92867432 -7.08774902 13.13469238 -6.82104492 12.31665039 C-5.79020774 9.4080527 -4.46163059 6.71445681 -3 4 C-2.34 4 -1.68 4 -1 4 C-0.67 2.68 -0.34 1.36 0 0 Z " fill="#AB700B" transform="translate(614,579)"/>
<path d="M0 0 C0.33 0 0.66 0 1 0 C1.33 3.3 1.66 6.6 2 10 C2.33 10 2.66 10 3 10 C3 17.59 3 25.18 3 33 C12.57 32.67 22.14 32.34 32 32 C26.6606928 37.3393072 20.57454485 36.1830993 13.375 36.1875 C12.3128125 36.19974609 11.250625 36.21199219 10.15625 36.22460938 C9.14304687 36.22654297 8.12984375 36.22847656 7.0859375 36.23046875 C6.1582959 36.23457764 5.2306543 36.23868652 4.27490234 36.24291992 C2 36 2 36 0 34 C-0.17502995 31.41896694 -0.23162279 28.94691837 -0.1953125 26.3671875 C-0.1924826 25.61535187 -0.18965271 24.86351624 -0.18673706 24.08889771 C-0.17552874 21.68410422 -0.15042352 19.27968119 -0.125 16.875 C-0.11497102 15.24609912 -0.10584503 13.61719242 -0.09765625 11.98828125 C-0.07558735 7.99204444 -0.04105351 3.99608506 0 0 Z " fill="#BA7304" transform="translate(700,472)"/>
<path d="M0 0 C2.39629455 3.59444183 2.25781331 6.14861652 2.1953125 10.29296875 C2.1924826 10.99899734 2.18965271 11.70502594 2.18673706 12.43244934 C2.17555464 14.68430633 2.1504542 16.93576352 2.125 19.1875 C2.11496767 20.71548904 2.10584226 22.24348433 2.09765625 23.77148438 C2.07732428 27.51460033 2.03817373 31.2568534 2 35 C8.27 35 14.54 35 21 35 C21 35.99 21 36.98 21 38 C14.07 38 7.14 38 0 38 C0 25.46 0 12.92 0 0 Z " fill="#B06702" transform="translate(413,470)"/>
<path d="M0 0 C6.37873459 5.10298767 9.30610125 13.15071688 11 21 C11.91100591 31.72473854 12.41190143 44.33921321 7 54 C4.35546875 55.83984375 4.35546875 55.83984375 2 57 C2.268125 56.360625 2.53625 55.72125 2.8125 55.0625 C5.11144286 49.13364736 7.18749374 43.33754881 8 37 C8.33 37 8.66 37 9 37 C9 33.04 9 29.08 9 25 C8.67 25 8.34 25 8 25 C7.79375 23.7625 7.5875 22.525 7.375 21.25 C6.22532997 15.91586922 3.84478723 11.46234983 1.2421875 6.69921875 C0 4 0 4 0 0 Z " fill="#BD7B1B" transform="translate(830,493)"/>
<path d="M0 0 C0 3 0 3 -1.9375 5.375 C-4.05832277 8.07422898 -4.61677737 9.64680201 -5 13 C-3.68 13 -2.36 13 -1 13 C-1 13.66 -1 14.32 -1 15 C0.32 15 1.64 15 3 15 C2.34 19.29 1.68 23.58 1 28 C0.34 27.67 -0.32 27.34 -1 27 C-1 25.35 -1 23.7 -1 22 C-1.66 22.33 -2.32 22.66 -3 23 C-2.7215625 21.8553125 -2.7215625 21.8553125 -2.4375 20.6875 C-1.77180827 17.91032625 -1.77180827 17.91032625 -3 15 C-3.66 15 -4.32 15 -5 15 C-5 15.66 -5 16.32 -5 17 C-5.66 17 -6.32 17 -7 17 C-7 16.34 -7 15.68 -7 15 C-7.66 15 -8.32 15 -9 15 C-9 14.01 -9 13.02 -9 12 C-10.32 12 -11.64 12 -13 12 C-13.33 11.01 -13.66 10.02 -14 9 C-12.9275 8.54625 -11.855 8.0925 -10.75 7.625 C-9.49993846 7.08347537 -8.24993475 6.54181721 -7 6 C-6.21625 5.67 -5.4325 5.34 -4.625 5 C-2.65169931 4.02546436 -2.65169931 4.02546436 -2 1 C-1.34 0.67 -0.68 0.34 0 0 Z " fill="#C3830E" transform="translate(905,537)"/>
<path d="M0 0 C0.66 1.32 1.32 2.64 2 4 C3.32 4 4.64 4 6 4 C6 5.32 6 6.64 6 8 C5.01 8 4.02 8 3 8 C3 8.66 3 9.32 3 10 C5.475 10.99 5.475 10.99 8 12 C8.28875 11.4225 8.5775 10.845 8.875 10.25 C10.4375 7.125 10.4375 7.125 12 4 C14.31 4.33 16.62 4.66 19 5 C18 7 18 7 15.1875 8.3125 C11.7776965 10.11769009 10.19494124 11.87642977 8 15 C4.96147295 13.59023295 2.4060405 11.91129772 -0.25 9.875 C-0.95640625 9.33617187 -1.6628125 8.79734375 -2.390625 8.2421875 C-2.92171875 7.83226562 -3.4528125 7.42234375 -4 7 C-3.39816251 4.97954558 -2.72693904 2.97888961 -2 1 C-1.34 0.67 -0.68 0.34 0 0 Z " fill="#B87703" transform="translate(520,494)"/>
<path d="M0 0 C0.66 0 1.32 0 2 0 C2.33 1.65 2.66 3.3 3 5 C3.66 5 4.32 5 5 5 C6.67482275 9.26767998 8.33845499 13.53963493 10 17.8125 C10.47695313 19.02744141 10.95390625 20.24238281 11.4453125 21.49414062 C11.89648438 22.65751953 12.34765625 23.82089844 12.8125 25.01953125 C13.23144531 26.09307861 13.65039062 27.16662598 14.08203125 28.27270508 C15 31 15 31 15 34 C16.65 34.33 18.3 34.66 20 35 C19.34 37.31 18.68 39.62 18 42 C16 39 16 39 16 37 C15.34 37 14.68 37 14 37 C12.0040449 31.89219012 10.01027283 26.78353578 8.01855469 21.67407227 C7.34012427 19.93457797 6.66108881 18.19531952 5.98144531 16.45629883 C5.00688559 13.96236355 4.03447672 11.46759916 3.0625 8.97265625 C2.75626709 8.19036148 2.45003418 7.40806671 2.13452148 6.60206604 C0 1.11387171 0 1.11387171 0 0 Z " fill="#B77C1F" transform="translate(594,502)"/>
<path d="M0 0 C1.06723961 3.46222615 1.10173486 6.64039266 1.0625 10.25 C1.05347656 11.32765625 1.04445313 12.4053125 1.03515625 13.515625 C1.02355469 14.33546875 1.01195312 15.1553125 1 16 C1.33 16 1.66 16 2 16 C2.15855469 16.59167969 2.31710937 17.18335938 2.48046875 17.79296875 C4.0548744 23.12507187 5.64438641 26.31448081 10 30 C10.66 30.66 11.32 31.32 12 32 C14.32275177 32.40047444 16.65739357 32.7397104 19 33 C19 33.66 19 34.32 19 35 C20.32 35.66 21.64 36.32 23 37 C18.66434547 38.49741567 16.30146679 37.20858792 12.31640625 35.3046875 C6.27190693 31.90019716 1.37631786 27.60695619 -0.65234375 20.81640625 C-2.34698221 13.71664644 -2.31825513 6.9547654 0 0 Z " fill="#C08526" transform="translate(513,529)"/>
<path d="M0 0 C3 4 3 4 2.69360352 6.54345703 C2.46471436 7.68411621 2.2358252 8.82477539 2 10 C1.84278213 13.76743937 1.8836483 17.53448103 1.90234375 21.3046875 C1.90446617 22.92336227 1.90446617 22.92336227 1.90663147 24.57473755 C1.91221156 28.00818702 1.92476045 31.44157036 1.9375 34.875 C1.94251757 37.20833239 1.94708003 39.5416658 1.95117188 41.875 C1.96217448 47.58335867 1.97942544 53.29166813 2 59 C-7.405 59.495 -7.405 59.495 -17 60 C-17 57.36 -17 54.72 -17 52 C-16.67 52 -16.34 52 -16 52 C-16 53.98 -16 55.96 -16 58 C-8.08 57.505 -8.08 57.505 0 57 C0 38.19 0 19.38 0 0 Z " fill="#B26B01" transform="translate(580,505)"/>
<path d="M0 0 C3.8335944 1.50605494 5.71017386 3.60888075 8 7 C8.50170898 9.92260742 8.50170898 9.92260742 8.49609375 13.10546875 C8.49673828 14.25337891 8.49738281 15.40128906 8.49804688 16.58398438 C8.47806641 17.77314453 8.45808594 18.96230469 8.4375 20.1875 C8.44458984 21.38826172 8.45167969 22.58902344 8.45898438 23.82617188 C8.41066135 30.42412359 8.41066135 30.42412359 8 33 C7.01 33.66 6.02 34.32 5 35 C4.98598145 33.71367676 4.98598145 33.71367676 4.97167969 32.40136719 C4.92758709 29.21027321 4.86593944 26.02013244 4.79248047 22.82958984 C4.76430901 21.45048349 4.74307528 20.07121682 4.72900391 18.69189453 C4.70752455 16.70577051 4.65876868 14.72000091 4.609375 12.734375 C4.58842773 11.54038086 4.56748047 10.34638672 4.54589844 9.11621094 C3.9019541 5.44031402 2.75743206 4.3950816 0 2 C0 1.34 0 0.68 0 0 Z " fill="#AD7600" transform="translate(899,503)"/>
<path d="M0 0 C2 2 2 2 2 5 C2.66 5 3.32 5 4 5 C5.66957232 11.51396129 6.26029841 17.35482129 6.125 24.0625 C6.11597656 24.92810547 6.10695313 25.79371094 6.09765625 26.68554688 C6.07439723 28.79048779 6.03854008 30.89528342 6 33 C5.34 33 4.68 33 4 33 C4 34.65 4 36.3 4 38 C3.67 38 3.34 38 3 38 C2.98018066 37.27522461 2.96036133 36.55044922 2.93994141 35.80371094 C2.84343664 32.45216966 2.73427657 29.10114824 2.625 25.75 C2.5940625 24.61046875 2.563125 23.4709375 2.53125 22.296875 C2.27290452 14.71874078 1.44429407 7.44380001 0 0 Z " fill="#B2740F" transform="translate(344,435)"/>
<path d="M0 0 C1.73030291 0.28484846 3.45920714 0.57819938 5.1875 0.875 C6.15042969 1.03742188 7.11335938 1.19984375 8.10546875 1.3671875 C10.91032604 1.98039517 13.37224747 2.85666343 16 4 C16 4.33 16 4.66 16 5 C14.60386935 4.85704109 13.20810692 4.71048442 11.8125 4.5625 C11.03519531 4.48128906 10.25789063 4.40007812 9.45703125 4.31640625 C6.95359214 3.99402379 4.47509476 3.49501895 2 3 C2 15.87 2 28.74 2 42 C1.67 42 1.34 42 1 42 C0.32932546 27.9907504 -0.15938672 14.02603124 0 0 Z " fill="#B87701" transform="translate(264,408)"/>
<path d="M0 0 C0.66 0 1.32 0 2 0 C2 0.66 2 1.32 2 2 C2.57234375 2.24363281 3.1446875 2.48726563 3.734375 2.73828125 C6.40433538 4.22517298 8.13829007 5.98083908 10.25 8.1875 C13.81099042 11.85461265 17.48563314 15.19381234 21.46875 18.39453125 C23.22272116 20.23351632 23.61254165 21.51919027 24 24 C20.1623765 21.8981214 17.37923847 19.54441996 14.375 16.375 C11.18362611 12.93038126 11.18362611 12.93038126 7 11 C7 10.01 7 9.02 7 8 C6.401875 7.731875 5.80375 7.46375 5.1875 7.1875 C2.98180967 5.99012525 1.56416813 4.95521016 0 3 C0 2.01 0 1.02 0 0 Z " fill="#BC852C" transform="translate(261,345)"/>
<path d="M0 0 C3.30051171 0.39291806 5.71803361 0.83887635 8.625 2.5 C12.94996367 4.42220608 16.69545045 4.55689056 21.375 4.6875 C22.62216797 4.73874023 22.62216797 4.73874023 23.89453125 4.79101562 C25.92923351 4.87287146 27.96459208 4.93812701 30 5 C30.33 5.66 30.66 6.32 31 7 C23.52201217 9.49266261 14.16820327 8.84232515 6.84375 6 C3.95153082 4.43133875 2.10646896 2.51417263 0 0 Z " fill="#B2700B" transform="translate(862,559)"/>
<path d="M0 0 C-9.3229481 8.21950738 -17.76113661 10.32523377 -30 11 C-30 10.34 -30 9.68 -30 9 C-28.865625 8.896875 -27.73125 8.79375 -26.5625 8.6875 C-21.12176219 8.00862006 -14.96727302 6.96727302 -11 3 C-10.34 2.67 -9.68 2.34 -9 2 C-9 1.34 -9 0.68 -9 0 C-3.375 -1.125 -3.375 -1.125 0 0 Z " fill="#BA7F29" transform="translate(751,516)"/>
<path d="M0 0 C0.99 0.33 1.98 0.66 3 1 C2.67 1.99 2.34 2.98 2 4 C2.66 4 3.32 4 4 4 C1.14674729 12.71827218 -1.93312545 21.35518532 -5 30 C-6.08518478 26.25853459 -5.72120584 24.0320896 -4.6875 20.25 C-4.40648437 19.19167969 -4.12546875 18.13335937 -3.8359375 17.04296875 C-3.56007813 16.03878906 -3.28421875 15.03460938 -3 14 C-1.80324036 9.59505942 -0.86063398 5.59907877 -1 1 C-0.67 0.67 -0.34 0.34 0 0 Z " fill="#BD8219" transform="translate(665,486)"/>
<path d="M0 0 C6.6 0 13.2 0 20 0 C21 3 21 3 20.0625 5.1875 C19.711875 5.785625 19.36125 6.38375 19 7 C18.34 7 17.68 7 17 7 C17 6.01 17 5.02 17 4 C11.06 4 5.12 4 -1 4 C-0.67 2.68 -0.34 1.36 0 0 Z " fill="#A76606" transform="translate(650,483)"/>
<path d="M0 0 C1.06888524 3.47665095 1.11475767 6.67137478 1.09765625 10.296875 C1.09443359 11.50214844 1.09121094 12.70742188 1.08789062 13.94921875 C1.07951172 15.20347656 1.07113281 16.45773437 1.0625 17.75 C1.05798828 19.01972656 1.05347656 20.28945313 1.04882812 21.59765625 C1.03704556 24.73181836 1.02059416 27.86588541 1 31 C0.67 29.68 0.34 28.36 0 27 C-0.66 27 -1.32 27 -2 27 C-3.14139106 23.35841901 -3.13317039 19.92423247 -3.125 16.125 C-3.12886719 14.33449219 -3.12886719 14.33449219 -3.1328125 12.5078125 C-3.00933396 9.24652649 -2.61663257 6.20061666 -2 3 C-1.34 3 -0.68 3 0 3 C0 2.01 0 1.02 0 0 Z " fill="#B2710B" transform="translate(851,508)"/>
<path d="M0 0 C0.66 0 1.32 0 2 0 C2.84681133 5.08086796 3.09038099 9.84828377 3 15 C2.34 15 1.68 15 1 15 C1 15.66 1 16.32 1 17 C0.34 17 -0.32 17 -1 17 C-1 17.66 -1 18.32 -1 19 C-3.97 19.33 -6.94 19.66 -10 20 C-9.2575 19.46375 -8.515 18.9275 -7.75 18.375 C-3.00309999 14.27540454 -0.88292691 10.84878124 -0.25 4.625 C-0.1500151 3.08432366 -0.06097679 1.54271267 0 0 Z " fill="#BA801C" transform="translate(737,485)"/>
<path d="M0 0 C0 0.33 0 0.66 0 1 C-3.63 1.33 -7.26 1.66 -11 2 C-7.37 2.33 -3.74 2.66 0 3 C0 3.33 0 3.66 0 4 C-3.3 4 -6.6 4 -10 4 C-10 5.32 -10 6.64 -10 8 C-11.32 8 -12.64 8 -14 8 C-14 7.34 -14 6.68 -14 6 C-15.32 6 -16.64 6 -18 6 C-18.33 5.67 -18.66 5.34 -19 5 C-20.32520503 4.31731862 -21.65812182 3.6492959 -23 3 C-15.43379073 -0.3380335 -8.1317821 -0.11842401 0 0 Z " fill="#C58615" transform="translate(554,480)"/>
<path d="M0 0 C0.33 0 0.66 0 1 0 C1.18451025 16.8929385 1.18451025 16.8929385 0 24 C-0.99 24.33 -1.98 24.66 -3 25 C-4.66710346 26.49985609 -4.66710346 26.49985609 -6 28 C-5.73445313 26.98421875 -5.46890625 25.9684375 -5.1953125 24.921875 C-3.06490194 16.6579762 -1.21744411 8.45803275 0 0 Z " fill="#B46F09" transform="translate(324,466)"/>
<path d="M0 0 C5.19150658 2.96657519 9.18590201 6.64123893 12 12 C12.1640625 14.75390625 12.1640625 14.75390625 12 17 C11.67 16.34 11.34 15.68 11 15 C10.34 15 9.68 15 9 15 C8.938125 14.38125 8.87625 13.7625 8.8125 13.125 C8.171081 10.72238859 8.171081 10.72238859 5.4375 9.75 C4.633125 9.5025 3.82875 9.255 3 9 C3 8.34 3 7.68 3 7 C1.68 7 0.36 7 -1 7 C-1 6.34 -1 5.68 -1 5 C-0.34 5 0.32 5 1 5 C0.67 3.35 0.34 1.7 0 0 Z " fill="#BD7C18" transform="translate(567,485)"/>
<path d="M0 0 C5.56830645 0.56626845 8.22365372 1.77972014 11.9375 6 C15.11859527 9.94194949 16.12776389 12.03441657 16.0625 17.125 C16.05347656 18.03507812 16.04445313 18.94515625 16.03515625 19.8828125 C16.02355469 20.58148438 16.01195312 21.28015625 16 22 C15.67 22 15.34 22 15 22 C15 19.69 15 17.38 15 15 C14.34 15 13.68 15 13 15 C12.62875 13.9275 12.2575 12.855 11.875 11.75 C10.1361966 7.70911886 7.91644101 6.07340995 4 4 C0.7750792 2.75675853 0.7750792 2.75675853 -2 2 C-1.34 1.34 -0.68 0.68 0 0 Z " fill="#B97A1B" transform="translate(724,470)"/>
<path d="M0 0 C2.97 0.495 2.97 0.495 6 1 C6.02693575 3.12493141 6.04636628 5.24995912 6.0625 7.375 C6.07410156 8.55835938 6.08570313 9.74171875 6.09765625 10.9609375 C6 14 6 14 5 16 C4.34 16 3.68 16 3 16 C3 16.66 3 17.32 3 18 C0.69 18.66 -1.62 19.32 -4 20 C-3 17 -3 17 -0.48828125 15.73046875 C2.3288928 14.18680453 2.3288928 14.18680453 2.70703125 10.86328125 C2.74183594 9.69152344 2.77664063 8.51976562 2.8125 7.3125 C2.86019531 6.13300781 2.90789063 4.95351563 2.95703125 3.73828125 C2.97121094 2.83464844 2.98539063 1.93101562 3 1 C2.01 0.67 1.02 0.34 0 0 Z " fill="#BA790B" transform="translate(558,529)"/>
<path d="M0 0 C0.33 0 0.66 0 1 0 C1.02505615 0.97348389 1.0501123 1.94696777 1.07592773 2.94995117 C1.17037278 6.57491347 1.27050167 10.19970066 1.37231445 13.82446289 C1.41552339 15.39082736 1.45720791 16.95723467 1.49731445 18.52368164 C1.55535871 20.7802418 1.61895302 23.03658908 1.68359375 25.29296875 C1.70030624 25.98899704 1.71701874 26.68502533 1.73423767 27.40214539 C1.84627032 31.11110211 2.26489968 34.32449841 3 38 C-3.93 38 -10.86 38 -18 38 C-18 37.67 -18 37.34 -18 37 C-12.06 37 -6.12 37 0 37 C0 24.79 0 12.58 0 0 Z " fill="#AD6300" transform="translate(701,526)"/>
<path d="M0 0 C6.6 0 13.2 0 20 0 C20 0.99 20 1.98 20 3 C13.07 3 6.14 3 -1 3 C-0.67 2.01 -0.34 1.02 0 0 Z " fill="#B97303" transform="translate(414,505)"/>
<path d="M0 0 C6.13325521 3.52153746 12.23615474 7.09001581 18.25 10.8125 C19.16265625 11.37582031 20.0753125 11.93914062 21.015625 12.51953125 C21.67046875 13.00808594 22.3253125 13.49664062 23 14 C23 14.66 23 15.32 23 16 C20.54314575 15.57640444 19.3035088 15.34489637 17.625 13.4375 C15.96237867 11.66863275 15.96237867 11.66863275 12.8125 11.8125 C11.884375 11.874375 10.95625 11.93625 10 12 C9.814375 11.4225 9.62875 10.845 9.4375 10.25 C7.87139599 7.79870676 6.95706558 7.30108714 4.4375 6 C1 4 1 4 0.28515625 1.875 C0.19105469 1.25625 0.09695312 0.6375 0 0 Z " fill="#BD8226" transform="translate(193,459)"/>
<path d="M0 0 C8.47179428 1.18355949 14.89690649 3.26460433 22 8 C22 8.66 22 9.32 22 10 C22.99 10.33 23.98 10.66 25 11 C23.3125 11.75 23.3125 11.75 21 12 C19.29803595 10.7120272 17.63654821 9.37013339 16 8 C11.63112229 5.85527821 7.77511566 4.75967749 3 4 C2.01 3.34 1.02 2.68 0 2 C0 1.34 0 0.68 0 0 Z " fill="#B88023" transform="translate(727,451)"/>
<path d="M0 0 C0.99 0.33 1.98 0.66 3 1 C4.42909323 4.27168044 3.78314546 6.51517836 2.6875 9.8125 C2.26597656 11.11767578 2.26597656 11.11767578 1.8359375 12.44921875 C1.42214844 13.71185547 1.42214844 13.71185547 1 15 C0.59665921 16.37281653 0.19965043 17.74753001 -0.1875 19.125 C-0.455625 20.07375 -0.72375 21.0225 -1 22 C-1.33 22 -1.66 22 -2 22 C-2.19355213 14.34393782 -2.3479743 7.33741969 0 0 Z " fill="#B57A11" transform="translate(515,525)"/>
<path d="M0 0 C0.66 0 1.32 0 2 0 C2 0.99 2 1.98 2 3 C2.66 3 3.32 3 4 3 C4.99 4.485 4.99 4.485 6 6 C6.99 6 7.98 6 9 6 C8.67 6.99 8.34 7.98 8 9 C8.66 9 9.32 9 10 9 C10 12.3 10 15.6 10 19 C6.625 14.5 6.625 14.5 6 11 C5.34 11 4.68 11 4 11 C2.68 7.37 1.36 3.74 0 0 Z " fill="#BA7C06" transform="translate(612,549)"/>
<path d="M0 0 C6.11104448 -0.50925371 9.75275569 0.95285813 15 4 C16.4540625 4.804375 16.4540625 4.804375 17.9375 5.625 C20 7 20 7 21 9 C20.0625 11.125 20.0625 11.125 19 13 C19 12.34 19 11.68 19 11 C18.360625 10.731875 17.72125 10.46375 17.0625 10.1875 C15 9 15 9 14 6 C11.07085835 4.82917122 11.07085835 4.82917122 8 4 C7.34 3.67 6.68 3.34 6 3 C6 2.34 6 1.68 6 1 C4.02 1 2.04 1 0 1 C0 0.67 0 0.34 0 0 Z " fill="#B47916" transform="translate(798,498)"/>
<path d="M0 0 C-1.83570276 4.78302552 -5.01232468 5.86651137 -9.4453125 7.9609375 C-12.28666386 9.11659417 -14.94019871 9.75843674 -18 10 C-18 9.01 -18 8.02 -18 7 C-16.7934375 6.6596875 -16.7934375 6.6596875 -15.5625 6.3125 C-11.76347785 4.91286026 -8.51602931 3.0942075 -5.05078125 1.0234375 C-3 0 -3 0 0 0 Z " fill="#B77715" transform="translate(224,575)"/>
<path d="M0 0 C-2.24664262 1.31855095 -4.49697306 2.62993972 -6.75 3.9375 C-7.70132813 4.49727539 -7.70132813 4.49727539 -8.671875 5.06835938 C-11.76291632 6.85536764 -14.51467668 8.24885273 -18 9 C-18 8.01 -18 7.02 -18 6 C-18.66 5.67 -19.32 5.34 -20 5 C-20 4.34 -20 3.68 -20 3 C-18.576875 3.12375 -18.576875 3.12375 -17.125 3.25 C-12.69461543 3.29520801 -9.20209145 1.60717571 -5.234375 -0.22265625 C-3 -1 -3 -1 0 0 Z " fill="#C38B2A" transform="translate(172,607)"/>
<path d="M0 0 C2.5 1 2.5 1 4 2 C0.2632157 4.49118953 -1.74451819 4.2065226 -6.1875 4.125 C-7.45980469 4.10695313 -8.73210937 4.08890625 -10.04296875 4.0703125 C-11.50669922 4.03550781 -11.50669922 4.03550781 -13 4 C-9.0064563 -0.17506841 -5.70027594 -0.4844108 0 0 Z " fill="#C8902C" transform="translate(255,340)"/>
<path d="M0 0 C2.85867556 2.85867556 3.50112834 6.34173436 4.625 10.125 C4.85445312 10.87910156 5.08390625 11.63320313 5.3203125 12.41015625 C5.88585438 14.27173159 6.44366822 16.13565151 7 18 C4.83125748 17.49396008 3.00032373 17.00016187 1 16 C1.01740234 15.02160156 1.01740234 15.02160156 1.03515625 14.0234375 C1.08470994 9.2238086 0.99413751 4.72215315 0 0 Z " fill="#C08225" transform="translate(619,511)"/>
<path d="M0 0 C3 2 3 2 4 4 C1.69 4 -0.62 4 -3 4 C-3 4.66 -3 5.32 -3 6 C-4.32 6 -5.64 6 -7 6 C-7 5.34 -7 4.68 -7 4 C-8.32 3.67 -9.64 3.34 -11 3 C-7.48991846 -0.36967828 -4.74988885 -0.43180808 0 0 Z " fill="#C28306" transform="translate(815,482)"/>
<path d="M0 0 C6.27 0.33 12.54 0.66 19 1 C19.33 1.99 19.66 2.98 20 4 C17.91695462 4.05418326 15.83350232 4.09287551 13.75 4.125 C12.00976562 4.15980469 12.00976562 4.15980469 10.234375 4.1953125 C5.76684644 3.92553421 3.67147756 2.44765171 0 0 Z " fill="#B06C01" transform="translate(787,563)"/>
<path d="M0 0 C3.90347282 1.53350718 5.84193539 3.40322566 8 7 C8.49205532 10.78276874 8.37663489 14.50614755 8.25 18.3125 C8.23195313 19.33923828 8.21390625 20.36597656 8.1953125 21.42382812 C8.14831063 23.95017885 8.08262272 26.47460469 8 29 C6.27793812 26.00873681 5.75820077 23.89314287 5.8046875 20.453125 C5.81113281 19.60878906 5.81757812 18.76445313 5.82421875 17.89453125 C5.84097656 17.02183594 5.85773437 16.14914062 5.875 15.25 C5.88402344 14.36183594 5.89304687 13.47367188 5.90234375 12.55859375 C5.92585423 10.37211942 5.95871501 8.18619906 6 6 C5.36578125 5.71382813 4.7315625 5.42765625 4.078125 5.1328125 C1.58438799 3.77344458 1.03567876 2.58919691 0 0 Z " fill="#AC6803" transform="translate(899,503)"/>
<path d="M0 0 C0.66 0 1.32 0 2 0 C2 2.97 2 5.94 2 9 C1.34 9 0.68 9 0 9 C0 9.66 0 10.32 0 11 C-1.65 10.67 -3.3 10.34 -5 10 C-5 9.34 -5 8.68 -5 8 C-4.34 8 -3.68 8 -3 8 C-2.67 6.35 -2.34 4.7 -2 3 C-1.34 3 -0.68 3 0 3 C0 2.01 0 1.02 0 0 Z " fill="#BD8017" transform="translate(450,491)"/>
<path d="M0 0 C-0.33 0.66 -0.66 1.32 -1 2 C-3.60444348 2.05394705 -6.20776998 2.09364469 -8.8125 2.125 C-9.55048828 2.14175781 -10.28847656 2.15851563 -11.04882812 2.17578125 C-14.91246426 2.21074628 -16.70903668 2.19397555 -20 0 C-12.92073441 -2.18813664 -7.07733398 -2.35911133 0 0 Z " fill="#B26B02" transform="translate(556,498)"/>
<path d="M0 0 C12.66970387 -0.18451025 12.66970387 -0.18451025 18 1 C18 1.66 18 2.32 18 3 C12.39 3 6.78 3 1 3 C0.67 2.01 0.34 1.02 0 0 Z " fill="#B98017" transform="translate(795,480)"/>
<path d="M0 0 C0.33 0 0.66 0 1 0 C1.04898438 0.73605469 1.09796875 1.47210937 1.1484375 2.23046875 C1.22320313 3.20628906 1.29796875 4.18210937 1.375 5.1875 C1.44460938 6.15042969 1.51421875 7.11335937 1.5859375 8.10546875 C2.00215853 11.01508938 2.79874096 13.32890774 4 16 C0.83884224 14.63016497 0.0072908 14.0109362 -2 11 C-2.265625 9.0625 -2.265625 9.0625 -2.25 7 C-2.25515625 6.319375 -2.2603125 5.63875 -2.265625 4.9375 C-2 3 -2 3 0 0 Z " fill="#B0710B" transform="translate(532,532)"/>
<path d="M0 0 C1.33981267 4.01943801 0.06649381 6.71848354 -1.25 10.5625 C-1.46785156 11.24763672 -1.68570313 11.93277344 -1.91015625 12.63867188 C-3.14784648 16.32640973 -3.67447707 17.78298471 -7 20 C-6.38388165 15.68068613 -5.35761422 11.74791225 -3.9375 7.625 C-3.57527344 6.56539063 -3.21304688 5.50578125 -2.83984375 4.4140625 C-2.56269531 3.61742187 -2.28554688 2.82078125 -2 2 C-1.34 2 -0.68 2 0 2 C0 1.34 0 0.68 0 0 Z " fill="#B37310" transform="translate(648,488)"/>
<path d="M0 0 C1.98 0.66 3.96 1.32 6 2 C5.67 3.98 5.34 5.96 5 8 C3 8 1 8 -1 8 C-1.125 2.25 -1.125 2.25 0 0 Z " fill="#C07804" transform="translate(255,342)"/>
<path d="M0 0 C0.86625 -0.00257813 1.7325 -0.00515625 2.625 -0.0078125 C5 0.125 5 0.125 8 1.125 C8 1.785 8 2.445 8 3.125 C2.72 3.125 -2.56 3.125 -8 3.125 C-8 2.465 -8 1.805 -8 1.125 C-5.05173237 0.14224412 -3.07347496 -0.00914725 0 0 Z " fill="#B47507" transform="translate(883,479.875)"/>
<path d="M0 0 C0.99 0.33 1.98 0.66 3 1 C4.125 5.75 4.125 5.75 3 8 C4.32 8.66 5.64 9.32 7 10 C4.03 9.505 4.03 9.505 1 9 C1 8.34 1 7.68 1 7 C-0.32 6.34 -1.64 5.68 -3 5 C-2.01 3.35 -1.02 1.7 0 0 Z " fill="#BA7802" transform="translate(284,408)"/>
<path d="M0 0 C0.66 0 1.32 0 2 0 C2.67154933 1.28913487 3.33708859 2.58140204 4 3.875 C4.37125 4.59429688 4.7425 5.31359375 5.125 6.0546875 C6 8 6 8 6 10 C7.1446875 10.433125 7.1446875 10.433125 8.3125 10.875 C11 12 11 12 14 14 C6.8477349 13.75755034 6.8477349 13.75755034 3.0625 10.375 C0.84921833 6.75326635 0.25218605 4.20310083 0 0 Z " fill="#BD862E" transform="translate(871,533)"/>
<path d="M0 0 C-0.33 0.66 -0.66 1.32 -1 2 C-2.32 1.67 -3.64 1.34 -5 1 C-5 1.66 -5 2.32 -5 3 C-4.34 3 -3.68 3 -3 3 C-3 3.66 -3 4.32 -3 5 C-4.32 5 -5.64 5 -7 5 C-7 4.34 -7 3.68 -7 3 C-7.66 3 -8.32 3 -9 3 C-9 1.68 -9 0.36 -9 -1 C-9.66 -1.33 -10.32 -1.66 -11 -2 C-6.38619749 -3.49270081 -4.10342037 -2.38570952 0 0 Z " fill="#BF8013" transform="translate(461,459)"/>
<path d="M0 0 C0.33 0 0.66 0 1 0 C1.58079748 10.88457503 1.58079748 10.88457503 -2 16 C-4.1875 17.375 -4.1875 17.375 -6 18 C-5.71382812 17.31550781 -5.42765625 16.63101563 -5.1328125 15.92578125 C-3.89019008 12.71638749 -2.87299966 9.48089886 -1.875 6.1875 C-1.52179687 5.02605469 -1.16859375 3.86460937 -0.8046875 2.66796875 C-0.53914062 1.78753906 -0.27359375 0.90710938 0 0 Z " fill="#AC7214" transform="translate(838,532)"/>
<path d="M0 0 C3.77545388 1.09068668 6.47043472 1.9083091 9 5 C6.36 5 3.72 5 1 5 C1 5.66 1 6.32 1 7 C-0.32 7 -1.64 7 -3 7 C-3 6.34 -3 5.68 -3 5 C-2.34 5 -1.68 5 -1 5 C-0.67 3.35 -0.34 1.7 0 0 Z " fill="#C18727" transform="translate(891,481)"/>
<path d="M0 0 C3.81311305 1.4980087 5.72483551 3.62648024 8 7 C8.75 9.8125 8.75 9.8125 9 12 C6.66666667 9.66666667 4.33333333 7.33333333 2 5 C2 6.65 2 8.3 2 10 C1.34 10 0.68 10 0 10 C0 6.66666667 0 3.33333333 0 0 Z " fill="#B37509" transform="translate(322,398)"/>
<path d="M0 0 C2.31 0.33 4.62 0.66 7 1 C6 3 6 3 3.1875 4.3125 C-0.2223035 6.11769009 -1.80505876 7.87642977 -4 11 C-4.99 10.67 -5.98 10.34 -7 10 C-6.01 9.67 -5.02 9.34 -4 9 C-3.62243192 7.67851173 -3.2981424 6.34164079 -3 5 C-2.0398183 3.31008021 -1.04644066 1.63790712 0 0 Z " fill="#B67C2B" transform="translate(532,498)"/>
<path d="M0 0 C0.66 0.33 1.32 0.66 2 1 C0.68 5.29 -0.64 9.58 -2 14 C-4.67927341 9.98108988 -4.15601248 7.75838077 -4 3 C-3.01 3 -2.02 3 -1 3 C-0.67 2.01 -0.34 1.02 0 0 Z " fill="#C68727" transform="translate(470,495)"/>
<path d="M0 0 C0.33 0 0.66 0 1 0 C1 1.65 1 3.3 1 5 C1.66 5 2.32 5 3 5 C3 9.29 3 13.58 3 18 C2.34 18 1.68 18 1 18 C1 19.65 1 21.3 1 23 C0.67 23 0.34 23 0 23 C0 15.41 0 7.82 0 0 Z " fill="#A76600" transform="translate(469,477)"/>
<path d="M0 0 C7.59 0.33 15.18 0.66 23 1 C23 2.98 23 4.96 23 7 C21 4 21 4 21 2 C15.06 2 9.12 2 3 2 C3 2.99 3 3.98 3 5 C2.34 5 1.68 5 1 5 C0.67 3.35 0.34 1.7 0 0 Z " fill="#A76506" transform="translate(588,484)"/>
<path d="M0 0 C0.66 0.33 1.32 0.66 2 1 C1.09499704 2.77682248 0.1754975 4.54626591 -0.75 6.3125 C-1.26046875 7.29863281 -1.7709375 8.28476562 -2.296875 9.30078125 C-3.97129263 11.95450276 -5.37976145 13.33102197 -8 15 C-8 14.34 -8 13.68 -8 13 C-8.66 12.67 -9.32 12.34 -10 12 C-9.38640625 11.75507812 -8.7728125 11.51015625 -8.140625 11.2578125 C-5.57364433 9.74947715 -4.96142096 8.55743212 -3.75 5.875 C-3.41484375 5.15054688 -3.0796875 4.42609375 -2.734375 3.6796875 C-2.49203125 3.12539063 -2.2496875 2.57109375 -2 2 C-1.34 2 -0.68 2 0 2 C0 1.34 0 0.68 0 0 Z " fill="#B9842D" transform="translate(262,544)"/>
<path d="M0 0 C1.14459881 3.43379644 0.69537511 4.52312446 0 8 C-0.17924112 13.46685411 0.22701629 18.58911403 1 24 C-0.65 22.68 -2.3 21.36 -4 20 C-3.505 18.515 -3.505 18.515 -3 17 C-2.54200042 13.79042482 -2.13755483 10.57984986 -1.75 7.36132812 C-1.10222805 2.20445609 -1.10222805 2.20445609 0 0 Z " fill="#B16D08" transform="translate(782,512)"/>
<path d="M0 0 C0.99 0 1.98 0 3 0 C2.34 4.29 1.68 8.58 1 13 C0.34 12.67 -0.32 12.34 -1 12 C-1 10.35 -1 8.7 -1 7 C-1.99 7.495 -1.99 7.495 -3 8 C-2.45276317 4.62537285 -1.9451 2.91765 0 0 Z " fill="#C18C2A" transform="translate(905,552)"/>
<path d="M0 0 C4.29 0.33 8.58 0.66 13 1 C13.33 2.32 13.66 3.64 14 5 C10.7 5 7.4 5 4 5 C4 4.01 4 3.02 4 2 C2.68 1.34 1.36 0.68 0 0 Z " fill="#C07C1A" transform="translate(792,545)"/>
<path d="M0 0 C3.3 0 6.6 0 10 0 C8.68 0.99 7.36 1.98 6 3 C2.79306879 5.42475287 0.26295362 7.66512098 -2 11 C-2.25 8.75 -2.25 8.75 -2 6 C0 3.6875 0 3.6875 2 2 C1.34 1.34 0.68 0.68 0 0 Z " fill="#B87D20" transform="translate(875,500)"/>
<path d="M0 0 C2 2 2 2 2.23046875 4.6796875 C2.21628906 5.73414063 2.20210937 6.78859375 2.1875 7.875 C2.18105469 8.92429687 2.17460938 9.97359375 2.16796875 11.0546875 C2.02619538 13.54066704 1.7160399 15.62847586 1 18 C0.34 18 -0.32 18 -1 18 C-0.505 9.09 -0.505 9.09 0 0 Z " fill="#AA6A07" transform="translate(758,482)"/>
<path d="M0 0 C0.33 0.99 0.66 1.98 1 3 C1.99 3 2.98 3 4 3 C4 3.66 4 4.32 4 5 C3.34 5 2.68 5 2 5 C2 6.32 2 7.64 2 9 C1.360625 9.12375 0.72125 9.2475 0.0625 9.375 C-0.618125 9.58125 -1.29875 9.7875 -2 10 C-2.33 10.66 -2.66 11.32 -3 12 C-3.66 11.67 -4.32 11.34 -5 11 C-3.35 7.37 -1.7 3.74 0 0 Z " fill="#C38927" transform="translate(616,571)"/>
<path d="M0 0 C0.66 1.32 1.32 2.64 2 4 C1.67 4.99 1.34 5.98 1 7 C0.34 7 -0.32 7 -1 7 C-1.06058594 7.62648438 -1.12117187 8.25296875 -1.18359375 8.8984375 C-1.26738281 9.71570313 -1.35117187 10.53296875 -1.4375 11.375 C-1.51871094 12.18710937 -1.59992187 12.99921875 -1.68359375 13.8359375 C-2 16 -2 16 -3 18 C-3.99 17.67 -4.98 17.34 -6 17 C-4.02 11.39 -2.04 5.78 0 0 Z " fill="#C0862C" transform="translate(637,516)"/>
<path d="M0 0 C1.32 0 2.64 0 4 0 C4 1.32 4 2.64 4 4 C4.66 4 5.32 4 6 4 C6 6.64 6 9.28 6 12 C5.67 11.01 5.34 10.02 5 9 C4.34 9 3.68 9 3 9 C2.87625 8.195625 2.7525 7.39125 2.625 6.5625 C2.315625 5.2940625 2.315625 5.2940625 2 4 C1.34 3.67 0.68 3.34 0 3 C0 2.01 0 1.02 0 0 Z " fill="#BA7708" transform="translate(594,498)"/>
<path d="M0 0 C-3.732388 3.57011026 -8.0949989 4.10913442 -13 5 C-13.33 4.01 -13.66 3.02 -14 2 C-12.23225581 1.46877637 -10.46065917 0.95035927 -8.6875 0.4375 C-7.70136719 0.14746094 -6.71523438 -0.14257812 -5.69921875 -0.44140625 C-3 -1 -3 -1 0 0 Z " fill="#B57C1E" transform="translate(820,562)"/>
<path d="M0 0 C0.33 0 0.66 0 1 0 C0.85923685 1.9587043 0.7122324 3.91696093 0.5625 5.875 C0.48128906 6.96554687 0.40007812 8.05609375 0.31640625 9.1796875 C0 12 0 12 -1 14 C-1.66 14 -2.32 14 -3 14 C-3.33 14.66 -3.66 15.32 -4 16 C-3.71515154 14.26969709 -3.42180062 12.54079286 -3.125 10.8125 C-2.96257812 9.84957031 -2.80015625 8.88664063 -2.6328125 7.89453125 C-2.01960483 5.08967396 -1.14333657 2.62775253 0 0 Z " fill="#B57818" transform="translate(265,530)"/>
<path d="M0 0 C3.27075883 -0.0580476 6.54138524 -0.09361165 9.8125 -0.125 C10.74126953 -0.14175781 11.67003906 -0.15851562 12.62695312 -0.17578125 C13.51962891 -0.18222656 14.41230469 -0.18867187 15.33203125 -0.1953125 C16.15421143 -0.20578613 16.9763916 -0.21625977 17.82348633 -0.22705078 C20 0 20 0 23 2 C22.67 2.66 22.34 3.32 22 4 C20.1746875 3.5359375 20.1746875 3.5359375 18.3125 3.0625 C12.26923779 1.70131794 6.17054072 1.36241197 0 1 C0 0.67 0 0.34 0 0 Z " fill="#A46505" transform="translate(536,513)"/>
<path d="M0 0 C0.33 0.99 0.66 1.98 1 3 C0.34 3.66 -0.32 4.32 -1 5 C-1 4.01 -1 3.02 -1 2 C-6.94 2 -12.88 2 -19 2 C-19 1.67 -19 1.34 -19 1 C-12.62641289 0.03794912 -6.44070471 -0.10655578 0 0 Z " fill="#C3800F" transform="translate(670,483)"/>
<path d="M0 0 C0.66 0.66 1.32 1.32 2 2 C1.7578125 4.1640625 1.7578125 4.1640625 1.125 6.625 C0.92132813 7.44226563 0.71765625 8.25953125 0.5078125 9.1015625 C0.34023438 9.72804688 0.17265625 10.35453125 0 11 C-0.66 11 -1.32 11 -2 11 C-2.66 12.98 -3.32 14.96 -4 17 C-5.3274855 13.01754349 -3.99907829 10.55210457 -2.5625 6.8125 C-2.19801758 5.83120117 -2.19801758 5.83120117 -1.82617188 4.83007812 C-1.2256707 3.21696714 -0.61390797 1.6080565 0 0 Z " fill="#AE6F13" transform="translate(346,474)"/>
<path d="M0 0 C0.66 0 1.32 0 2 0 C6.59225513 9.22551253 6.59225513 9.22551253 6 15 C5.67 14.01 5.34 13.02 5 12 C4.34 12 3.68 12 3 12 C2.49440092 10.56445975 1.9957251 9.1264798 1.5 7.6875 C1.2215625 6.88699219 0.943125 6.08648437 0.65625 5.26171875 C0 3 0 3 0 0 Z " fill="#B17311" transform="translate(318,449)"/>
<path d="M0 0 C2.19578473 2.67312924 3.19649201 4.67118118 4 8 C4.66 8.33 5.32 8.66 6 9 C5.67 9.66 5.34 10.32 5 11 C2.69 10.01 0.38 9.02 -2 8 C-1.67 7.34 -1.34 6.68 -1 6 C-1.99 5.34 -2.98 4.68 -4 4 C-2.68 2.68 -1.36 1.36 0 0 Z " fill="#CA9027" transform="translate(279,406)"/>
<path d="M0 0 C-4.62 2.64 -9.24 5.28 -14 8 C-14.66 7.34 -15.32 6.68 -16 6 C-11.58747962 2.0011534 -6.01026939 -2.00342313 0 0 Z " fill="#C48E3A" transform="translate(195,594)"/>
<path d="M0 0 C0.99 0.33 1.98 0.66 3 1 C3 1.99 3 2.98 3 4 C4.65 4.33 6.3 4.66 8 5 C7.34 7.31 6.68 9.62 6 12 C4 9 4 9 4 7 C3.34 7 2.68 7 2 7 C1.34 4.69 0.68 2.38 0 0 Z " fill="#B5750C" transform="translate(606,532)"/>
<path d="M0 0 C0.99 0.33 1.98 0.66 3 1 C2.38125 1.7425 1.7625 2.485 1.125 3.25 C-0.60437281 5.48801188 -1.86106661 7.43739987 -3 10 C-5.5 8.625 -5.5 8.625 -8 7 C-8 6.34 -8 5.68 -8 5 C-7.05125 4.731875 -6.1025 4.46375 -5.125 4.1875 C-1.74732727 3.25013412 -1.74732727 3.25013412 0 0 Z " fill="#B97303" transform="translate(444,501)"/>
<path d="M0 0 C2.51242417 3.03794555 3.88228534 5.91438973 5.1875 9.625 C5.53167969 10.58664062 5.87585938 11.54828125 6.23046875 12.5390625 C7 15 7 15 7 17 C6.34 17 5.68 17 5 17 C2.54582388 11.326858 0.53753096 6.18160604 0 0 Z " fill="#BB842D" transform="translate(465,465)"/>
<path d="M0 0 C1.9375 0.375 1.9375 0.375 4 1 C5.1482685 3.296537 5.11561175 4.58313167 5.09765625 7.1328125 C5.09282227 8.34130859 5.09282227 8.34130859 5.08789062 9.57421875 C5.07951172 10.41597656 5.07113281 11.25773437 5.0625 12.125 C5.05798828 12.97449219 5.05347656 13.82398438 5.04882812 14.69921875 C5.03702874 16.79950909 5.01909306 18.8997633 5 21 C4.67 21 4.34 21 4 21 C3.95101563 20.08476562 3.90203125 19.16953125 3.8515625 18.2265625 C3.77679688 17.03804688 3.70203125 15.84953125 3.625 14.625 C3.55539062 13.44164062 3.48578125 12.25828125 3.4140625 11.0390625 C3.29782654 7.89437681 3.29782654 7.89437681 1 6 C0.60235737 4.01178687 0.26224651 2.01055661 0 0 Z " fill="#C58317" transform="translate(321,461)"/>
<path d="M0 0 C5.8997555 5.58924205 5.8997555 5.58924205 7 9 C6.625 11.25 6.625 11.25 6 13 C0 5.28571429 0 5.28571429 0 0 Z " fill="#B87C22" transform="translate(830,493)"/>
<path d="M0 0 C1.98 0 3.96 0 6 0 C6 0.66 6 1.32 6 2 C8.64 1.67 11.28 1.34 14 1 C13.01 1.495 13.01 1.495 12 2 C12 2.66 12 3.32 12 4 C9.03 4 6.06 4 3 4 C3 3.34 3 2.68 3 2 C2.01 1.67 1.02 1.34 0 1 C0 0.67 0 0.34 0 0 Z " fill="#AC6E06" transform="translate(142,612)"/>
<path d="M0 0 C-3 2 -3 2 -6.4375 2.9375 C-9.69116333 3.90789082 -11.49282766 4.79368834 -14 7 C-13.76491164 3.70876303 -12.90932858 2.9201228 -10.375 0.6875 C-6.34004883 -1.32997558 -4.31392359 -1.03534166 0 0 Z " fill="#B87E23" transform="translate(547,527)"/>
<path d="M0 0 C3.24519666 0.30406442 4.61900552 0.56280677 6.80078125 3.06640625 C7.29964844 3.89011719 7.79851562 4.71382813 8.3125 5.5625 C8.82425781 6.38878906 9.33601563 7.21507812 9.86328125 8.06640625 C10.23839844 8.70449219 10.61351562 9.34257812 11 10 C10.01 10.33 9.02 10.66 8 11 C7.4225 10.113125 6.845 9.22625 6.25 8.3125 C4.31931524 5.40957756 2.21719936 2.69231351 0 0 Z " fill="#BF8A38" transform="translate(305,432)"/>
<path d="M0 0 C2.53078176 3.13334885 4.51376532 6.24530187 6 10 C5.07421875 12.1875 5.07421875 12.1875 4 14 C3.13395466 12.23494565 2.28251358 10.46271926 1.4375 8.6875 C0.72400391 7.20830078 0.72400391 7.20830078 -0.00390625 5.69921875 C-1 3 -1 3 0 0 Z " fill="#B27311" transform="translate(339,420)"/>
<path d="M0 0 C1.48521677 0.75911079 2.96303425 1.53271234 4.4375 2.3125 C5.67306641 2.95638672 5.67306641 2.95638672 6.93359375 3.61328125 C9 5 9 5 10 8 C8.3501725 7.57781184 6.70516335 7.13675575 5.0625 6.6875 C4.14597656 6.44386719 3.22945313 6.20023437 2.28515625 5.94921875 C1.15400391 5.47935547 1.15400391 5.47935547 0 5 C-0.33 4.01 -0.66 3.02 -1 2 C-0.67 1.34 -0.34 0.68 0 0 Z " fill="#AF740E" transform="translate(285,367)"/>
<path d="M0 0 C1.0169313 2.65498232 1.13022151 3.69155375 0.00390625 6.359375 C-0.47175781 7.14828125 -0.94742188 7.9371875 -1.4375 8.75 C-1.91058594 9.54921875 -2.38367188 10.3484375 -2.87109375 11.171875 C-3.24363281 11.77515625 -3.61617187 12.3784375 -4 13 C-4.99 12.67 -5.98 12.34 -7 12 C-5.68 9.36 -4.36 6.72 -3 4 C-2.34 4 -1.68 4 -1 4 C-0.67 2.68 -0.34 1.36 0 0 Z " fill="#B67919" transform="translate(614,579)"/>
<path d="M0 0 C2.97 0.33 5.94 0.66 9 1 C9 3.31 9 5.62 9 8 C8.34 8 7.68 8 7 8 C6.6596875 7.1028125 6.6596875 7.1028125 6.3125 6.1875 C4.66463631 3.44106051 2.76545517 2.52827786 0 1 C0 0.67 0 0.34 0 0 Z " fill="#B9811F" transform="translate(553,499)"/>
<path d="M0 0 C0.99 0.495 0.99 0.495 2 1 C3.1577506 4.47325181 3.06866652 7.36067448 3 11 C2.34 11 1.68 11 1 11 C0.67 11.99 0.34 12.98 0 14 C0 9.38 0 4.76 0 0 Z " fill="#B27005" transform="translate(449,480)"/>
<path d="M0 0 C2.912575 0.08566397 4.56798024 0.57910955 6.66796875 2.625 C8.16091772 4.38391375 9.60436262 6.16313019 11 8 C8.21788056 7.62403791 6.4120716 7.32681541 4.1875 5.5625 C3 4 3 4 3 2 C2.01 1.67 1.02 1.34 0 1 C0 0.67 0 0.34 0 0 Z " fill="#C08C46" transform="translate(307,384)"/>
<path d="M0 0 C4.95 0 9.9 0 15 0 C15 0.33 15 0.66 15 1 C13.02 1 11.04 1 9 1 C9 1.66 9 2.32 9 3 C5.625 3.1875 5.625 3.1875 2 3 C1.34 2.01 0.68 1.02 0 0 Z " fill="#B16A01" transform="translate(534,564)"/>
<path d="M0 0 C0.391875 0.556875 0.78375 1.11375 1.1875 1.6875 C3.02737419 4.14917817 3.02737419 4.14917817 5.6875 6.5625 C8 9 8 9 8 12 C4.19374018 10.50468364 2.22059499 8.41019944 0 5 C-0.25 2.1875 -0.25 2.1875 0 0 Z " fill="#B37D26" transform="translate(515,550)"/>
<path d="M0 0 C-2.97 2.475 -2.97 2.475 -6 5 C-6.33 4.34 -6.66 3.68 -7 3 C-7.99 3.33 -8.98 3.66 -10 4 C-10.33 3.34 -10.66 2.68 -11 2 C-10.34 2 -9.68 2 -9 2 C-9 1.34 -9 0.68 -9 0 C-3.375 -1.125 -3.375 -1.125 0 0 Z " fill="#C48930" transform="translate(751,516)"/>
<path d="M0 0 C0.33 0.99 0.66 1.98 1 3 C-0.06716072 4.20205464 -1.15438337 5.38632333 -2.25 6.5625 C-3.15492188 7.55443359 -3.15492188 7.55443359 -4.078125 8.56640625 C-4.71234375 9.03949219 -5.3465625 9.51257813 -6 10 C-7.32 9.67 -8.64 9.34 -10 9 C-6.7 6.03 -3.4 3.06 0 0 Z " fill="#AA6A09" transform="translate(332,504)"/>
<path d="M0 0 C0.99 0.33 1.98 0.66 3 1 C0.61820737 4.74281699 -1.74475735 7.97727468 -5 11 C-4.46884894 6.48521602 -2.63379708 3.65333143 0 0 Z " fill="#BF8635" transform="translate(338,495)"/>
<path d="M0 0 C-3.88672813 3.18005028 -7.89952133 6.10554447 -12 9 C-11.38140114 5.55352064 -10.91180221 4.91180221 -8.25 2.25 C-4.98370194 -0.01128327 -3.8309219 -0.56337087 0 0 Z " fill="#AB6D08" transform="translate(534,484)"/>
<path d="M0 0 C2.97 0.495 2.97 0.495 6 1 C6 1.66 6 2.32 6 3 C6.66 3 7.32 3 8 3 C8 4.65 8 6.3 8 8 C7.34 7.34 6.68 6.68 6 6 C5.34 6.66 4.68 7.32 4 8 C3.71125 7.195625 3.4225 6.39125 3.125 5.5625 C2.26737432 2.8673532 2.26737432 2.8673532 0 2 C0 1.34 0 0.68 0 0 Z " fill="#BF7F17" transform="translate(444,475)"/>
<path d="M0 0 C3.01802393 0.32627286 4.59691281 0.61081236 6.8125 2.75 C8.19608294 5.37152557 8.24360427 7.07674878 8 10 C4 5.25 4 5.25 4 3 C2.68 3 1.36 3 0 3 C0 2.01 0 1.02 0 0 Z " fill="#B2720E" transform="translate(748,463)"/>
<path d="M0 0 C11.52164009 -0.55353075 11.52164009 -0.55353075 17 3 C16.34 3.66 15.68 4.32 15 5 C14.41992188 4.79503906 13.83984375 4.59007812 13.2421875 4.37890625 C8.8378016 2.85990187 4.64322223 1.5952849 0 1 C0 0.67 0 0.34 0 0 Z " fill="#AB6A0B" transform="translate(438,453)"/>
<path d="M0 0 C3.81684226 1.55500981 6.19195732 4.03595495 9 7 C6.69 7 4.38 7 2 7 C2 5.68 2 4.36 2 3 C1.34 3 0.68 3 0 3 C0 2.01 0 1.02 0 0 Z " fill="#BB8531" transform="translate(298,375)"/>
<path d="M0 0 C4.43090471 1.20842856 6.98112756 2.51668565 10 6 C9.67 6.99 9.34 7.98 9 9 C7.68412059 7.87895467 6.37239647 6.75303035 5.0625 5.625 C4.33160156 4.99851562 3.60070312 4.37203125 2.84765625 3.7265625 C1 2 1 2 0 0 Z " fill="#BD8439" transform="translate(275,360)"/>
<path d="M0 0 C1.25955231 3.77865693 0.48087189 5.03411786 -0.9375 8.6875 C-1.31777344 9.68136719 -1.69804688 10.67523437 -2.08984375 11.69921875 C-2.39019531 12.45847656 -2.69054687 13.21773437 -3 14 C-3.33 14 -3.66 14 -4 14 C-4.17835515 9.45194365 -3.99785435 6.1205746 -2 2 C-1.34 2 -0.68 2 0 2 C0 1.34 0 0.68 0 0 Z " fill="#BE842C" transform="translate(639,567)"/>
<path d="M0 0 C-2.97 2.475 -2.97 2.475 -6 5 C-6.66 4.67 -7.32 4.34 -8 4 C-8 3.34 -8 2.68 -8 2 C-8.66 2 -9.32 2 -10 2 C-10 1.34 -10 0.68 -10 0 C-3.375 -1.125 -3.375 -1.125 0 0 Z " fill="#BF8A2E" transform="translate(830,556)"/>
<path d="M0 0 C0.66 0 1.32 0 2 0 C2.33 0.99 2.66 1.98 3 3 C3.66 3.33 4.32 3.66 5 4 C3.35 5.65 1.7 7.3 0 9 C0 7.35 0 5.7 0 4 C-1.98 4.99 -1.98 4.99 -4 6 C-3.34 4.68 -2.68 3.36 -2 2 C-1.34 2 -0.68 2 0 2 C0 1.34 0 0.68 0 0 Z " fill="#C48C22" transform="translate(830,546)"/>
<path d="M0 0 C0 3.99476331 -1.28869085 5.1421336 -4 8 C-6.75 9.3125 -6.75 9.3125 -9 10 C-6.375 5.125 -6.375 5.125 -3 4 C-2.67 3.01 -2.34 2.02 -2 1 C-1.34 0.67 -0.68 0.34 0 0 Z " fill="#B57D27" transform="translate(905,537)"/>
<path d="M0 0 C0.99 0 1.98 0 3 0 C3 1.65 3 3.3 3 5 C2.34 5 1.68 5 1 5 C0.67 5.99 0.34 6.98 0 8 C0 7.34 0 6.68 0 6 C-1.32 5.67 -2.64 5.34 -4 5 C-3.34 4.67 -2.68 4.34 -2 4 C-2 3.34 -2 2.68 -2 2 C-1.34 2 -0.68 2 0 2 C0 1.34 0 0.68 0 0 Z " fill="#B47605" transform="translate(870,508)"/>
<path d="M0 0 C0.33 0.66 0.66 1.32 1 2 C1.66 2 2.32 2 3 2 C3.53093324 3.93475671 4.04942317 5.87293155 4.5625 7.8125 C4.85253906 8.89144531 5.14257812 9.97039063 5.44140625 11.08203125 C6 14 6 14 5 17 C4.16080602 14.73117913 3.32848276 12.46022973 2.5 10.1875 C2.26152344 9.54490234 2.02304687 8.90230469 1.77734375 8.24023438 C0.72931254 5.35066261 0 3.09923939 0 0 Z " fill="#A86603" transform="translate(615,503)"/>
<path d="M0 0 C0.33 0 0.66 0 1 0 C1.33 8.25 1.66 16.5 2 25 C1.01 25 0.02 25 -1 25 C-0.67 16.75 -0.34 8.5 0 0 Z " fill="#BA7106" transform="translate(702,482)"/>
<path d="M0 0 C0 3 0 3 -1 5 C-1.15004973 6.3734635 -1.24838006 7.7528526 -1.31640625 9.1328125 C-1.37924805 10.34130859 -1.37924805 10.34130859 -1.44335938 11.57421875 C-1.48267578 12.41597656 -1.52199219 13.25773437 -1.5625 14.125 C-1.60568359 14.97449219 -1.64886719 15.82398438 -1.69335938 16.69921875 C-1.79954236 18.79928223 -1.90028497 20.89961948 -2 23 C-2.33 23 -2.66 23 -3 23 C-3.0868329 19.541824 -3.14033282 16.08392656 -3.1875 12.625 C-3.21263672 11.64015625 -3.23777344 10.6553125 -3.26367188 9.640625 C-3.27333984 8.69960938 -3.28300781 7.75859375 -3.29296875 6.7890625 C-3.3086792 5.91975098 -3.32438965 5.05043945 -3.34057617 4.15478516 C-3.22818604 3.44370605 -3.1157959 2.73262695 -3 2 C-2.01 1.34 -1.02 0.68 0 0 Z " fill="#B06D02" transform="translate(141,439)"/>
<path d="M0 0 C1.67180274 0.94934513 3.33733936 1.90973313 5 2.875 C5.928125 3.40867187 6.85625 3.94234375 7.8125 4.4921875 C8.8953125 5.23855469 8.8953125 5.23855469 10 6 C10 6.66 10 7.32 10 8 C3.52864939 7.51159618 3.52864939 7.51159618 1.0625 5.125 C0 3 0 3 0 0 Z " fill="#BD8126" transform="translate(177,449)"/>
<path d="M0 0 C4.97093824 0.41153737 9.44508386 0.79600832 14 3 C14 3.33 14 3.66 14 4 C9.05 3.67 4.1 3.34 -1 3 C-0.67 2.01 -0.34 1.02 0 0 Z " fill="#B37411" transform="translate(266,409)"/>
<path d="M0 0 C1.61725534 3.00950123 2.67582623 5.97103608 3.625 9.25 C3.88539063 10.14203125 4.14578125 11.0340625 4.4140625 11.953125 C4.60742188 12.62859375 4.80078125 13.3040625 5 14 C3.68 13.67 2.36 13.34 1 13 C0.1276588 10.00519083 -0.10829766 7.36424089 -0.0625 4.25 C-0.05347656 3.45078125 -0.04445313 2.6515625 -0.03515625 1.828125 C-0.02355469 1.22484375 -0.01195312 0.6215625 0 0 Z " fill="#AE6E0B" transform="translate(762,530)"/>
<path d="M0 0 C1.65 0.33 3.3 0.66 5 1 C5 1.66 5 2.32 5 3 C0.82262526 4.59138085 -2.53160785 5.21278058 -7 5 C-7.33 4.34 -7.66 3.68 -8 3 C-5.36 2.67 -2.72 2.34 0 2 C0 1.34 0 0.68 0 0 Z " fill="#AF7004" transform="translate(314,514)"/>
<path d="M0 0 C1.32 0 2.64 0 4 0 C4 1.32 4 2.64 4 4 C3.34 4 2.68 4 2 4 C1.67 5.65 1.34 7.3 1 9 C0.34 8.67 -0.32 8.34 -1 8 C-1.625 4.9375 -1.625 4.9375 -2 2 C-1.34 2 -0.68 2 0 2 C0 1.34 0 0.68 0 0 Z " fill="#C38F2A" transform="translate(562,556)"/>
<path d="M0 0 C0.66 0.33 1.32 0.66 2 1 C-0.26786278 4.64666307 -2.06404326 5.67897228 -6.1875 6.75 C-7.53908203 7.11351562 -7.53908203 7.11351562 -8.91796875 7.484375 C-9.60503906 7.65453125 -10.29210937 7.8246875 -11 8 C-11.33 7.34 -11.66 6.68 -12 6 C-11.36191406 5.89042969 -10.72382813 5.78085937 -10.06640625 5.66796875 C-9.24011719 5.50941406 -8.41382813 5.35085938 -7.5625 5.1875 C-6.32693359 4.96126953 -6.32693359 4.96126953 -5.06640625 4.73046875 C-4.38449219 4.48941406 -3.70257813 4.24835937 -3 4 C-2.67 3.01 -2.34 2.02 -2 1 C-1.34 0.67 -0.68 0.34 0 0 Z " fill="#BD8229" transform="translate(455,518)"/>
<path d="M0 0 C3.73487777 0.4979837 5.81237635 0.87491756 9 3 C8.67 3.99 8.34 4.98 8 6 C1.125 2.25 1.125 2.25 0 0 Z " fill="#B67918" transform="translate(862,559)"/>
<path d="M0 0 C0.33 0.66 0.66 1.32 1 2 C0.01 2.33 -0.98 2.66 -2 3 C-2.73323796 5.01508358 -2.73323796 5.01508358 -3 7 C-3.66 7 -4.32 7 -5 7 C-5 6.34 -5 5.68 -5 5 C-6.32 5 -7.64 5 -9 5 C-9 4.34 -9 3.68 -9 3 C-7.68 3 -6.36 3 -5 3 C-4.67 2.34 -4.34 1.68 -4 1 C-1.9375 0.375 -1.9375 0.375 0 0 Z " fill="#B97B06" transform="translate(463,511)"/>
<path d="M0 0 C2.46278801 2.46278801 2.99771255 4.70676982 4 8 C2.35 7.67 0.7 7.34 -1 7 C-2 4 -2 4 -1.0625 1.8125 C-0.5365625 0.9153125 -0.5365625 0.9153125 0 0 Z " fill="#BA822D" transform="translate(518,495)"/>
<path d="M0 0 C0.33 0.99 0.66 1.98 1 3 C2.32 3 3.64 3 5 3 C5 4.32 5 5.64 5 7 C1 7 1 7 -0.75 5.5 C-1.1625 5.005 -1.575 4.51 -2 4 C-1.34 2.68 -0.68 1.36 0 0 Z " fill="#BD850F" transform="translate(521,491)"/>
<path d="M0 0 C0 3 0 3 -1.1875 4.6875 C-3.55741722 6.40364695 -5.14025666 6.23187108 -8 6 C-7.67 5.01 -7.34 4.02 -7 3 C-3.4375 1.3125 -3.4375 1.3125 0 0 Z " fill="#AF6F10" transform="translate(813,542)"/>
<path d="M0 0 C0.33 0 0.66 0 1 0 C1.3227506 4.62609198 0.84450614 7.28026121 -2 11 C-2.66 11 -3.32 11 -4 11 C-4 9.68 -4 8.36 -4 7 C-3.34 7 -2.68 7 -2 7 C-1.34 4.69 -0.68 2.38 0 0 Z " fill="#AB6A0D" transform="translate(756,501)"/>
<path d="M0 0 C0.99 0.33 1.98 0.66 3 1 C2.34 4.3 1.68 7.6 1 11 C0.34 10.67 -0.32 10.34 -1 10 C-1.125 2.25 -1.125 2.25 0 0 Z " fill="#AA6802" transform="translate(304,505)"/>
<path d="M0 0 C2 2 2 2 2 5 C2.66 5 3.32 5 4 5 C4 8.63 4 12.26 4 16 C2.14316785 12.28633571 1.48888644 9.7841109 0.875 5.75 C0.70742188 4.67234375 0.53984375 3.5946875 0.3671875 2.484375 C0.24601562 1.66453125 0.12484375 0.8446875 0 0 Z " fill="#AA6504" transform="translate(344,435)"/>
<path d="M0 0 C1.98 0.66 3.96 1.32 6 2 C6.33 3.65 6.66 5.3 7 7 C4.625 6.3125 4.625 6.3125 2 5 C0.6875 2.375 0.6875 2.375 0 0 Z " fill="#AF7710" transform="translate(301,426)"/>
<path d="M0 0 C-3.58752742 1.86551426 -7.27812193 3.42535928 -11 5 C-11 3.68 -11 2.36 -11 1 C-3.375 -1.125 -3.375 -1.125 0 0 Z " fill="#B17008" transform="translate(173,605)"/>
<path d="M0 0 C1.46726798 3.81489674 0.43336419 6.29011622 -1 10 C-1.66 10 -2.32 10 -3 10 C-2.25 3.375 -2.25 3.375 0 0 Z " fill="#AF6F10" transform="translate(647,543)"/>
<path d="M0 0 C2 2 2 2 2.1953125 4.3828125 C2.17210937 5.28773438 2.14890625 6.19265625 2.125 7.125 C2.10695313 8.03507813 2.08890625 8.94515625 2.0703125 9.8828125 C2.03550781 10.93082031 2.03550781 10.93082031 2 12 C0.06645644 10.38192934 -0.91399811 9.52624963 -1.328125 6.9921875 C-1.11111111 1.11111111 -1.11111111 1.11111111 0 0 Z " fill="#B16F07" transform="translate(562,506)"/>
<path d="M0 0 C0 3.19610552 -0.54671542 4.41717626 -2 7.1875 C-2.37125 7.90292969 -2.7425 8.61835938 -3.125 9.35546875 C-3.558125 10.16951172 -3.558125 10.16951172 -4 11 C-4.66 9.68 -5.32 8.36 -6 7 C-2.25 1.125 -2.25 1.125 0 0 Z " fill="#AD710E" transform="translate(770,495)"/>
<path d="M0 0 C0.66 0.33 1.32 0.66 2 1 C1.09515208 2.15518918 0.1755794 3.29885406 -0.75 4.4375 C-1.26046875 5.07558594 -1.7709375 5.71367187 -2.296875 6.37109375 C-4.19667629 8.18810554 -5.43586908 8.60423197 -8 9 C-7.04270084 7.87411986 -6.08412105 6.7493285 -5.125 5.625 C-4.59132813 4.99851562 -4.05765625 4.37203125 -3.5078125 3.7265625 C-2.38567993 2.44163349 -1.20628025 1.20628025 0 0 Z " fill="#BE852D" transform="translate(776,487)"/>
<path d="M0 0 C0.66 0 1.32 0 2 0 C2.33 2.97 2.66 5.94 3 9 C2.34 9 1.68 9 1 9 C0.67 10.32 0.34 11.64 0 13 C-0.66 12.67 -1.32 12.34 -2 12 C-1.855625 11.30132812 -1.71125 10.60265625 -1.5625 9.8828125 C-1.376875 8.97273438 -1.19125 8.06265625 -1 7.125 C-0.814375 6.22007812 -0.62875 5.31515625 -0.4375 4.3828125 C0.06019595 2.07592097 0.06019595 2.07592097 0 0 Z " fill="#CA9C45" transform="translate(737,485)"/>
<path d="M0 0 C-2.72478774 3.36591427 -6.06856792 4.44226276 -10 6 C-9.6875 4.125 -9.6875 4.125 -9 2 C-5.5647952 -0.29013653 -4.014669 -0.17842973 0 0 Z " fill="#C59140" transform="translate(247,564)"/>
<path d="M0 0 C2.125 0.9375 2.125 0.9375 4 2 C2.75336669 2.50833591 1.50250613 3.00631145 0.25 3.5 C-0.44609375 3.7784375 -1.1421875 4.056875 -1.859375 4.34375 C-4 5 -4 5 -8 5 C-8 4.34 -8 3.68 -8 3 C-6.02 3 -4.04 3 -2 3 C-2 2.34 -2 1.68 -2 1 C-1.34 0.67 -0.68 0.34 0 0 Z " fill="#C38F3A" transform="translate(551,562)"/>
<path d="M0 0 C0.66 0 1.32 0 2 0 C2 0.99 2 1.98 2 3 C2.66 3 3.32 3 4 3 C4.66 4.98 5.32 6.96 6 9 C5.34 9.66 4.68 10.32 4 11 C2.68 7.37 1.36 3.74 0 0 Z " fill="#BC8125" transform="translate(612,549)"/>
<path d="M0 0 C0 0.66 0 1.32 0 2 C-0.66 2 -1.32 2 -2 2 C-2 2.66 -2 3.32 -2 4 C-4.31 4.66 -6.62 5.32 -9 6 C-8 3 -8 3 -5.625 1.3125 C-3 0 -3 0 0 0 Z " fill="#B46F0E" transform="translate(563,543)"/>
<path d="M0 0 C0.66 0 1.32 0 2 0 C4.03684712 4.07369424 4.0257259 6.58937864 3 11 C2.67 11 2.34 11 2 11 C0.80712589 7.12315913 0 4.08378077 0 0 Z " fill="#AD730E" transform="translate(836,505)"/>
<path d="M0 0 C0.66 0.33 1.32 0.66 2 1 C1.40075776 5.19469571 0.42500059 9.00999834 -1 13 C-2.07310858 9.72814447 -1.89263102 7.57052408 -1.0625 4.25 C-0.86785156 3.45078125 -0.67320312 2.6515625 -0.47265625 1.828125 C-0.31667969 1.22484375 -0.16070313 0.6215625 0 0 Z " fill="#BE8831" transform="translate(661,503)"/>
<path d="M0 0 C3.057952 1.73559438 5.63379989 3.38472619 8 6 C7.67 6.99 7.34 7.98 7 9 C6.67 8.01 6.34 7.02 6 6 C4.6846659 5.29848848 3.34882408 4.63474075 2 4 C0.25 2.375 0.25 2.375 -1 1 C-0.67 0.67 -0.34 0.34 0 0 Z " fill="#A96905" transform="translate(822,486)"/>
<path d="M0 0 C0.66 0.33 1.32 0.66 2 1 C-1.17320782 4.53586014 -3.16743695 6.58578031 -8 7 C-5.42215154 4.35247996 -3.08351902 2.05567935 0 0 Z " fill="#BE8630" transform="translate(868,483)"/>
<path d="M0 0 C2.24606427 1.77444972 2.95081002 2.58352485 3.29296875 5.48046875 C3.25816406 6.37378906 3.22335937 7.26710938 3.1875 8.1875 C3.16042969 9.08855469 3.13335938 9.98960937 3.10546875 10.91796875 C3.07066406 11.60503906 3.03585937 12.29210937 3 13 C2.67 13 2.34 13 2 13 C2 10.69 2 8.38 2 6 C1.34 6 0.68 6 0 6 C-0.38218767 4.34385343 -0.71395102 2.67542976 -1 1 C-0.67 0.67 -0.34 0.34 0 0 Z " fill="#A96C09" transform="translate(737,479)"/>
<path d="M0 0 C0.91007812 0.10183594 1.82015625 0.20367187 2.7578125 0.30859375 C3.45648438 0.39238281 4.15515625 0.47617187 4.875 0.5625 C4.875 0.8925 4.875 1.2225 4.875 1.5625 C1.245 1.8925 -2.385 2.2225 -6.125 2.5625 C-6.455 1.9025 -6.785 1.2425 -7.125 0.5625 C-4.50184968 -0.74907516 -2.89466564 -0.33399988 0 0 Z " fill="#BC7D17" transform="translate(440.125,451.4375)"/>
<path d="M0 0 C0.66 1.32 1.32 2.64 2 4 C-3.94 2.515 -3.94 2.515 -10 1 C-10 0.67 -10 0.34 -10 0 C-6.34745949 -0.9392247 -3.60112861 -1.2652614 0 0 Z " fill="#AA6603" transform="translate(156,436)"/>
<path d="M0 0 C0.185625 0.9590625 0.185625 0.9590625 0.375 1.9375 C0.684375 2.9584375 0.684375 2.9584375 1 4 C1.66 4.33 2.32 4.66 3 5 C2.01 6.485 2.01 6.485 1 8 C0.67 7.34 0.34 6.68 0 6 C-0.66 7.32 -1.32 8.64 -2 10 C-2.25 3.375 -2.25 3.375 0 0 Z " fill="#C68821" transform="translate(756,496)"/>
<path d="M0 0 C1.9375 0.5625 1.9375 0.5625 4 2 C4.75 5.625 4.75 5.625 5 9 C4.67 8.34 4.34 7.68 4 7 C3.34 7 2.68 7 2 7 C1.34 4.69 0.68 2.38 0 0 Z " fill="#AE7011" transform="translate(574,493)"/>
<path d="M0 0 C6.625 0.75 6.625 0.75 10 3 C9.01 3 8.02 3 7 3 C7 3.66 7 4.32 7 5 C6.34 5 5.68 5 5 5 C5 4.34 5 3.68 5 3 C4.01 2.67 3.02 2.34 2 2 C1.34 1.34 0.68 0.68 0 0 Z " fill="#BA8120" transform="translate(555,481)"/>
<path d="M0 0 C1.33855056 0.78281305 2.67073644 1.57651877 4 2.375 C5.11375 3.03628906 5.11375 3.03628906 6.25 3.7109375 C6.8275 4.13632812 7.405 4.56171875 8 5 C8 5.66 8 6.32 8 7 C4.66272214 5.82744291 2.22562513 4.81131596 0 2 C0 1.34 0 0.68 0 0 Z " fill="#C18D3B" transform="translate(193,459)"/>
<path d="M0 0 C-1.125 1.9375 -1.125 1.9375 -3 4 C-6.1875 4.75 -6.1875 4.75 -9 5 C-6.81610567 0.16423399 -5.20641855 -0.13701101 0 0 Z " fill="#B0700C" transform="translate(183,598)"/>
<path d="M0 0 C0.33 0.66 0.66 1.32 1 2 C-0.6875 4.5 -0.6875 4.5 -3 7 C-5.75 7.3125 -5.75 7.3125 -8 7 C-7.236875 6.401875 -6.47375 5.80375 -5.6875 5.1875 C-3.6516425 3.53040668 -1.8021721 1.89702326 0 0 Z " fill="#A76A0F" transform="translate(560,556)"/>
<path d="M0 0 C0.66 0 1.32 0 2 0 C2.33 1.32 2.66 2.64 3 4 C3.66 4 4.32 4 5 4 C5.66 5.65 6.32 7.3 7 9 C6.01 9 5.02 9 4 9 C2.68 6.03 1.36 3.06 0 0 Z " fill="#B97A1C" transform="translate(851,543)"/>
<path d="M0 0 C1.39195915 4.17587745 -0.17676781 6.13474776 -2 10 C-2.33 10 -2.66 10 -3 10 C-3.125 4.25 -3.125 4.25 -2 2 C-1.34 2 -0.68 2 0 2 C0 1.34 0 0.68 0 0 Z " fill="#BA7E26" transform="translate(657,518)"/>
<path d="M0 0 C0.99 0.33 1.98 0.66 3 1 C2.67 2.32 2.34 3.64 2 5 C1.34 5 0.68 5 0 5 C0 5.66 0 6.32 0 7 C-0.66 7 -1.32 7 -2 7 C-1.814375 6.38125 -1.62875 5.7625 -1.4375 5.125 C-0.76313824 2.95839822 -0.76313824 2.95839822 -2 1 C-1.34 0.67 -0.68 0.34 0 0 Z " fill="#C08316" transform="translate(780,485)"/>
<path d="M0 0 C2.4375 0.8125 2.4375 0.8125 5 2 C5.33 2.99 5.66 3.98 6 5 C4.68 5.33 3.36 5.66 2 6 C1.34 4.02 0.68 2.04 0 0 Z " fill="#B67713" transform="translate(201,465)"/>
<path d="M0 0 C2.91517292 1.07401108 4.77810176 1.77810176 7 4 C6.625 6.125 6.625 6.125 6 8 C5.67 7.01 5.34 6.02 5 5 C4.34 5 3.68 5 3 5 C1.375 2.5 1.375 2.5 0 0 Z " fill="#A76802" transform="translate(458,460)"/>
<path d="M0 0 C0.99 0 1.98 0 3 0 C3 1.98 3 3.96 3 6 C1.68 5.34 0.36 4.68 -1 4 C-0.67 2.68 -0.34 1.36 0 0 Z " fill="#BA7E04" transform="translate(315,392)"/>
<path d="M0 0 C1.98 0.66 3.96 1.32 6 2 C6.33 1.34 6.66 0.68 7 0 C7.99 0.99 8.98 1.98 10 3 C7.29120665 4.35439668 4.99066732 4.06501451 2 4 C2 3.34 2 2.68 2 2 C1.34 2 0.68 2 0 2 C0 1.34 0 0.68 0 0 Z " fill="#C68921" transform="translate(288,372)"/>
<path d="M0 0 C3.81684226 1.55500981 6.19195732 4.03595495 9 7 C2.29787234 5.06382979 2.29787234 5.06382979 0 2 C0 1.34 0 0.68 0 0 Z " fill="#B6771A" transform="translate(270,354)"/>
<path d="M0 0 C0.66 0 1.32 0 2 0 C0.63016497 3.16115776 0.0109362 3.9927092 -3 6 C-5.1875 5.625 -5.1875 5.625 -7 5 C-6.030625 4.360625 -5.06125 3.72125 -4.0625 3.0625 C-1.23963731 1.3034741 -1.23963731 1.3034741 0 0 Z " fill="#A76403" transform="translate(900,558)"/>
<path d="M0 0 C1.9375 0.6875 1.9375 0.6875 4 2 C4.93580311 4.87939419 5.37245106 6.25509788 4 9 C1.43135272 7.71567636 1.053461 6.63365249 0 4 C0 2.68 0 1.36 0 0 Z " fill="#C28B26" transform="translate(627,534)"/>
<path d="M0 0 C0.66 0.33 1.32 0.66 2 1 C1.67 2.32 1.34 3.64 1 5 C-0.98 5 -2.96 5 -5 5 C-3.35 3.35 -1.7 1.7 0 0 Z " fill="#C0903C" transform="translate(523,517)"/>
<path d="M0 0 C0.66 0.33 1.32 0.66 2 1 C0.02 3.31 -1.96 5.62 -4 8 C-4.33 6.68 -4.66 5.36 -5 4 C-4.0409375 3.8453125 -4.0409375 3.8453125 -3.0625 3.6875 C-2.381875 3.460625 -1.70125 3.23375 -1 3 C-0.67 2.01 -0.34 1.02 0 0 Z " fill="#C89B54" transform="translate(465,510)"/>
<path d="M0 0 C0.66 0.33 1.32 0.66 2 1 C1.75 3.875 1.75 3.875 1 7 C-0.98 7.99 -0.98 7.99 -3 9 C-2.01 6.03 -1.02 3.06 0 0 Z " fill="#B6780E" transform="translate(852,502)"/>
<path d="M0 0 C1.98 0 3.96 0 6 0 C5.67 1.32 5.34 2.64 5 4 C2.525 3.01 2.525 3.01 0 2 C0 1.34 0 0.68 0 0 Z " fill="#BA8125" transform="translate(894,500)"/>
<path d="M0 0 C2.31 0.33 4.62 0.66 7 1 C6.67 1.66 6.34 2.32 6 3 C3.4375 3.625 3.4375 3.625 1 4 C0.67 2.68 0.34 1.36 0 0 Z " fill="#C3882C" transform="translate(532,498)"/>
<path d="M0 0 C6.625 -0.25 6.625 -0.25 10 2 C10.33 2.66 10.66 3.32 11 4 C9.53984709 3.71758359 8.08190207 3.42373386 6.625 3.125 C5.81289063 2.96257812 5.00078125 2.80015625 4.1640625 2.6328125 C2 2 2 2 0 0 Z " fill="#A86A02" transform="translate(808,482)"/>
<path d="M0 0 C2.31 0.33 4.62 0.66 7 1 C7.33 2.32 7.66 3.64 8 5 C4.62496331 3.8141763 2.35277269 2.72426311 0 0 Z " fill="#BD852C" transform="translate(288,418)"/>
<path d="M0 0 C2.31 0.33 4.62 0.66 7 1 C7 1.66 7 2.32 7 3 C4.36 3 1.72 3 -1 3 C-0.67 2.01 -0.34 1.02 0 0 Z " fill="#AC6C00" transform="translate(247,340)"/>
<path d="M0 0 C2 1.25 2 1.25 4 3 C4 4.32 4 5.64 4 7 C3.34 7 2.68 7 2 7 C2 7.66 2 8.32 2 9 C1.34 8.67 0.68 8.34 0 8 C0 5.36 0 2.72 0 0 Z " fill="#C08B2B" transform="translate(617,560)"/>
<path d="M0 0 C-1.6875 1.625 -1.6875 1.625 -4 3 C-6.75 2.1875 -6.75 2.1875 -9 1 C-5.64919071 -1.10976881 -3.77897651 -1.0497157 0 0 Z " fill="#C18211" transform="translate(541,548)"/>
<path d="M0 0 C0.33 0.99 0.66 1.98 1 3 C-1.40436026 6.60654039 -2.94679607 6.85452932 -7 8 C-4.79020692 5.18060883 -2.59937954 2.46941056 0 0 Z " fill="#B7872F" transform="translate(817,536)"/>
<path d="M0 0 C0.99 0 1.98 0 3 0 C3 1.65 3 3.3 3 5 C1.35 4.67 -0.3 4.34 -2 4 C-1.34 2.68 -0.68 1.36 0 0 Z " fill="#B77607" transform="translate(782,508)"/>
<path d="M0 0 C0.66 0.33 1.32 0.66 2 1 C1.34 3.31 0.68 5.62 0 8 C-0.99 7.67 -1.98 7.34 -3 7 C-2.38722388 4.03824877 -1.74627478 2.61941217 0 0 Z " fill="#B97F1B" transform="translate(470,495)"/>
<path d="M0 0 C2.18975773 3.28463659 2.99806563 6.20696275 4 10 C3.34 10 2.68 10 2 10 C-1.07692308 4.58461538 -1.07692308 4.58461538 -0.6875 1.625 C-0.460625 1.08875 -0.23375 0.5525 0 0 Z " fill="#C58F36" transform="translate(611,487)"/>
<path d="M0 0 C0.99 0.33 1.98 0.66 3 1 C2.34 2.65 1.68 4.3 1 6 C0.01 5.67 -0.98 5.34 -2 5 C-1.125 1.125 -1.125 1.125 0 0 Z " fill="#B87403" transform="translate(871,482)"/>
<path d="M0 0 C2.9375 1.3125 2.9375 1.3125 6 3 C6.33 3.99 6.66 4.98 7 6 C5.02 5.34 3.04 4.68 1 4 C1 3.34 1 2.68 1 2 C0.34 1.67 -0.32 1.34 -1 1 C-0.67 0.67 -0.34 0.34 0 0 Z " fill="#AC710E" transform="translate(187,456)"/>
<path d="M0 0 C0.33 0.66 0.66 1.32 1 2 C1.66 2 2.32 2 3 2 C3 3.98 3 5.96 3 8 C2.01 8.495 2.01 8.495 1 9 C0.67 6.03 0.34 3.06 0 0 Z " fill="#B2740C" transform="translate(904,452)"/>
<path d="M0 0 C1.98 1.65 3.96 3.3 6 5 C4.125 5.625 4.125 5.625 2 6 C1.34 5.34 0.68 4.68 0 4 C0 2.68 0 1.36 0 0 Z " fill="#C69C5A" transform="translate(318,392)"/>
<path d="M0 0 C0.33 1.32 0.66 2.64 1 4 C1.99 3.67 2.98 3.34 4 3 C3.67 4.65 3.34 6.3 3 8 C2.34 8 1.68 8 1 8 C0.67 5.36 0.34 2.72 0 0 Z " fill="#BE8320" transform="translate(136,601)"/>
<path d="M0 0 C0 0.99 0 1.98 0 3 C-2.64 3.66 -5.28 4.32 -8 5 C-3.22727273 0 -3.22727273 0 0 0 Z " fill="#AE7215" transform="translate(250,560)"/>
<path d="M0 0 C0.66 0.99 1.32 1.98 2 3 C1.125 5.6875 1.125 5.6875 0 8 C-0.66 8 -1.32 8 -2 8 C-1.125 2.25 -1.125 2.25 0 0 Z " fill="#AA7313" transform="translate(664,496)"/>
<path d="M0 0 C0.99 0.495 0.99 0.495 2 1 C2.59355614 3.64860427 2.74209269 6.29197322 3 9 C2.01 9 1.02 9 0 9 C0 6.03 0 3.06 0 0 Z " fill="#C38914" transform="translate(235,485)"/>
<path d="M0 0 C0.66 0 1.32 0 2 0 C1.67 2.31 1.34 4.62 1 7 C0.01 7.33 -0.98 7.66 -2 8 C-1.34 5.36 -0.68 2.72 0 0 Z " fill="#BF872B" transform="translate(321,482)"/>
</svg>
